<svg width="46" height="46" viewBox="0 0 46 46" fill="none" xmlns="http://www.w3.org/2000/svg">
<path d="M45.3894 35.8015C45.3938 35.8146 45.3987 35.8276 45.4042 35.8403C45.4558 35.961 45.4617 36.0883 45.4617 36.3295C45.4617 36.8627 45.3405 37.6864 45.1515 38.5273C44.9629 39.3667 44.7189 40.1701 44.4945 40.664L44.4944 40.6639L44.4902 40.6739C44.1943 41.3649 43.6387 41.9637 42.9458 42.5013C42.2544 43.0378 41.4628 43.4862 40.7265 43.8956C38.8562 44.9105 36.9799 45.5 34.8957 45.5C32.4182 45.5 30.1504 44.6436 27.7951 43.7542C27.3716 43.5943 26.9454 43.4333 26.5146 43.276L26.5129 43.2754C24.5473 42.5659 22.6539 41.698 20.8936 40.6089L20.8935 40.6088C15.4102 37.2193 8.77402 30.5775 5.38727 25.0897L5.38717 25.0895C4.29899 23.3278 3.4317 21.4327 2.72278 19.4654L2.72217 19.4638C2.56505 19.0326 2.40423 18.606 2.24446 18.1822C1.35576 15.8249 0.5 13.555 0.5 11.0753C0.5 8.989 1.08906 7.11103 2.10321 5.23902C2.51227 4.50212 2.9603 3.7099 3.49639 3.01784C4.03357 2.32438 4.63183 1.76837 5.32209 1.4723L5.32214 1.47241L5.33204 1.4679C5.82546 1.24344 6.62805 0.999186 7.46676 0.810419C8.30692 0.621327 9.12981 0.5 9.66241 0.5C9.90341 0.5 10.0304 0.505896 10.1508 0.557525C10.1636 0.562992 10.1765 0.567926 10.1897 0.572314C10.2344 0.587219 10.336 0.649708 10.4857 0.8203C10.6266 0.980968 10.7733 1.19461 10.9188 1.43731C11.151 1.82466 11.3542 2.2403 11.5142 2.56772C11.5561 2.65335 11.595 2.73295 11.6307 2.80442C11.6343 2.81156 11.638 2.81862 11.6419 2.82558C11.9865 3.43977 12.3292 4.06083 12.6729 4.68366C13.3642 5.93617 14.0594 7.19586 14.7809 8.4213L14.7808 8.42135L14.7858 8.42951C14.9248 8.65552 15.0916 8.89095 15.2526 9.1182L15.2587 9.12689C15.4253 9.36209 15.5885 9.59272 15.7349 9.82597C16.0359 10.3055 16.2134 10.7179 16.2134 11.0753C16.2134 11.2025 16.165 11.3768 16.0289 11.6073C15.8941 11.8356 15.6915 12.0885 15.4284 12.3641C14.9005 12.9173 14.1879 13.5026 13.4444 14.1049C13.3973 14.143 13.3501 14.1813 13.3028 14.2195C12.6169 14.7747 11.9145 15.3432 11.3752 15.8804C11.086 16.1686 10.827 16.4637 10.6378 16.7592C10.4516 17.0499 10.3049 17.3839 10.3049 17.7401C10.3049 18.3121 10.562 18.9118 10.828 19.4153C11.0044 19.7491 11.2175 20.0966 11.4009 20.3958C11.4916 20.5439 11.5752 20.6801 11.6434 20.7969C14.9844 26.8206 19.1629 31.0026 25.1816 34.3464C25.2983 34.4147 25.4344 34.4982 25.5823 34.589C25.8813 34.7726 26.2285 34.9858 26.5621 35.1624C27.0651 35.4287 27.6645 35.6861 28.2364 35.6861C28.5926 35.6861 28.9265 35.5392 29.217 35.3528C29.5123 35.1634 29.8072 34.9042 30.0951 34.6147C30.6319 34.075 31.1999 33.372 31.7546 32.6856C31.7928 32.6382 31.831 32.5909 31.8691 32.5438C32.4709 31.7997 33.0558 31.0865 33.6085 30.5581C33.8838 30.2949 34.1365 30.0921 34.3646 29.9572C34.5949 29.821 34.7688 29.7727 34.8957 29.7727C35.2524 29.7727 35.6642 29.9502 36.1434 30.2514C36.3764 30.3979 36.6069 30.5612 36.8419 30.728L36.8506 30.7342C37.0777 30.8953 37.3129 31.0622 37.5387 31.2013L37.5386 31.2014L37.5469 31.2062C38.7713 31.9284 40.0299 32.6241 41.2814 33.3159C41.9037 33.66 42.5243 34.003 43.138 34.3478C43.1449 34.3517 43.152 34.3555 43.1591 34.3591C43.2306 34.3948 43.3101 34.4338 43.3957 34.4757C43.7228 34.6359 44.1381 34.8392 44.5251 35.0716C44.7676 35.2172 44.981 35.364 45.1415 35.505C45.3119 35.6547 45.3745 35.7565 45.3894 35.8015Z" stroke="#FAA61A" stroke-linejoin="round"/>
</svg>
