<svg width="48" height="64" viewBox="0 0 48 64" fill="none" xmlns="http://www.w3.org/2000/svg">
<path d="M21.9341 62.5019L21.9211 62.4791L21.9058 62.4578C20.0151 59.8319 17.7705 56.5868 15.0938 52.7168C14.5901 51.9885 14.071 51.238 13.5361 50.4654L13.5361 50.4654L13.533 50.461C9.27889 44.4552 6.54291 40.4743 5.30597 38.3715L5.29883 38.3594L5.29103 38.3476C3.30588 35.3699 2.08294 32.9141 1.47724 30.9759L1.47307 30.9625L1.46816 30.9494C0.749218 29.0322 0.5 26.7273 0.5 24C0.5 19.8332 1.47906 15.9234 3.67875 12.2572L3.67877 12.2573L3.68135 12.2529C5.7618 8.70386 8.57494 5.88858 12.255 3.68007C15.8039 1.60022 19.716 0.5 24 0.5C28.1541 0.5 32.0669 1.59771 35.7448 3.68007C39.2975 5.88693 42.113 8.7024 44.3199 12.2552C46.4023 15.933 47.5 19.8459 47.5 24C47.5 26.6986 47.1328 29.0184 46.5269 30.9625C45.7916 32.9199 44.5608 35.384 42.703 38.3567C41.3323 40.4749 38.5889 44.4655 34.4637 50.4656C34.4635 50.466 34.4632 50.4664 34.463 50.4667L26.0931 62.4594C26.0926 62.4601 26.0921 62.4608 26.0916 62.4615C25.5719 63.1878 24.8581 63.5 24 63.5C22.9911 63.5 22.3176 63.173 21.9341 62.5019ZM16.5214 31.4786C18.6236 33.5807 21.1297 34.5 24 34.5C26.8771 34.5 29.256 33.5761 31.3536 31.4786C33.4443 29.3878 34.5 26.8868 34.5 24C34.5 21.1065 33.4393 18.7322 31.3536 16.6464C29.2678 14.5607 26.8935 13.5 24 13.5C21.1132 13.5 18.6122 14.5557 16.5214 16.6464C14.4239 18.744 13.5 21.1229 13.5 24C13.5 26.8703 14.4193 29.3764 16.5214 31.4786Z" stroke="#FAA61A"/>
</svg>
