<svg width="64" height="65" viewBox="0 0 64 65" fill="none" xmlns="http://www.w3.org/2000/svg">
<path fill-rule="evenodd" clip-rule="evenodd" d="M56.8921 0.0422809C57.1324 -0.0632266 57.4134 0.0349859 57.5356 0.267211L62.1627 9.05841C62.2913 9.30277 62.1975 9.60513 61.9531 9.73374C61.7088 9.86236 61.4064 9.76853 61.2778 9.52417L57.2318 1.83714C51.5719 21.0748 36.397 43.963 1.63698 48.8194C1.36349 48.8576 1.11081 48.6669 1.0726 48.3934C1.0344 48.1199 1.22512 47.8672 1.49861 47.829C35.8693 43.027 50.7813 20.3901 56.3224 1.38459L47.684 5.17767C47.4312 5.2887 47.1362 5.17373 47.0252 4.92089C46.9142 4.66805 47.0291 4.37308 47.282 4.26206L56.8921 0.0422809ZM51.966 21.2473C51.966 20.9712 52.1899 20.7473 52.466 20.7473H60.2965C60.5727 20.7473 60.7965 20.9712 60.7965 21.2473V60.6319C60.7965 60.908 60.5727 61.1319 60.2965 61.1319H52.466C52.1899 61.1319 51.966 60.908 51.966 60.6319V21.2473ZM52.966 21.7473V60.1319H59.7965V21.7473H52.966ZM39.8644 36.7198C39.8644 36.4437 40.0882 36.2198 40.3643 36.2198H48.1948C48.471 36.2198 48.6948 36.4437 48.6948 36.7198V60.6319C48.6948 60.908 48.471 61.1319 48.1948 61.1319H40.3643C40.0882 61.1319 39.8644 60.908 39.8644 60.6319V36.7198ZM40.8643 37.2198V60.1319H47.6948V37.2198H40.8643ZM27.0508 44.4561C27.0508 44.1799 27.2747 43.9561 27.5508 43.9561H35.3813C35.6574 43.9561 35.8813 44.1799 35.8813 44.4561V60.6319C35.8813 60.908 35.6574 61.1319 35.3813 61.1319H27.5508C27.2747 61.1319 27.0508 60.908 27.0508 60.6319V44.4561ZM28.0508 44.9561V60.1319H34.8813V44.9561H28.0508ZM14.9491 50.0824C14.9491 49.8063 15.173 49.5824 15.4491 49.5824H23.2796C23.5558 49.5824 23.7796 49.8063 23.7796 50.0824V60.6319C23.7796 60.908 23.5558 61.1319 23.2796 61.1319H15.4491C15.173 61.1319 14.9491 60.908 14.9491 60.6319V50.0824ZM15.9491 50.5824V60.1319H22.7796V50.5824H15.9491ZM2.13559 53.5989C2.13559 53.3228 2.35945 53.0989 2.63559 53.0989H10.4661C10.7422 53.0989 10.9661 53.3228 10.9661 53.5989V60.6319C10.9661 60.908 10.7422 61.1319 10.4661 61.1319H2.63559C2.35945 61.1319 2.13559 60.908 2.13559 60.6319V53.5989ZM3.13559 54.0989V60.1319H9.96609V54.0989H3.13559ZM0 64.5C0 64.2239 0.223857 64 0.499999 64H63.4999C63.7761 64 63.9999 64.2239 63.9999 64.5C63.9999 64.7761 63.7761 65 63.4999 65H0.499999C0.223857 65 0 64.7761 0 64.5Z" fill="#FAA61A"/>
</svg>
