<svg width="15" height="15" viewBox="0 0 15 15" fill="none" xmlns="http://www.w3.org/2000/svg">
<path d="M12.7567 2.17634C13.4598 2.91295 13.9955 3.71652 14.3973 4.62054C14.7991 5.52455 15 6.46205 15 7.43304C15 8.77232 14.6317 10.0112 13.9621 11.1496C13.2924 12.2879 12.3549 13.192 11.2165 13.8616C10.0781 14.5312 8.83929 14.8661 7.5 14.8661C6.22768 14.8661 5.02232 14.5647 3.95089 13.9621L0 15L1.07143 11.1496C0.401786 10.0112 0.0669643 8.77232 0.0669643 7.43304C0.0669643 6.09375 0.401786 4.85491 1.07143 3.71652C1.74107 2.57812 2.64509 1.67411 3.78348 1.00446C4.92188 0.334821 6.16071 0 7.5 0C8.47098 0 9.40848 0.200893 10.3125 0.569196C11.2165 0.970982 12.0201 1.5067 12.7567 2.17634ZM7.5 13.6272C8.60491 13.6272 9.64286 13.3594 10.6138 12.7902C11.5513 12.2545 12.3214 11.4844 12.8906 10.5469C13.4598 9.60938 13.7612 8.57143 13.7612 7.43304C13.7612 6.62946 13.5938 5.85938 13.2589 5.08929C12.9241 4.35268 12.4554 3.68304 11.8527 3.08036C11.25 2.47768 10.5804 2.04241 9.84375 1.70759C9.10714 1.40625 8.30357 1.23884 7.5 1.23884C6.36161 1.23884 5.32366 1.54018 4.38616 2.07589C3.44866 2.64509 2.67857 3.41518 2.14286 4.35268C1.57366 5.29018 1.3058 6.32812 1.3058 7.43304C1.3058 8.63839 1.60714 9.70982 2.27679 10.7143L2.41071 10.9487L1.77455 13.2254L4.1183 12.6228L4.35268 12.7567C5.29018 13.3594 6.36161 13.6272 7.5 13.6272ZM10.8817 8.97321L10.9821 9.04018C11.1161 9.10714 11.2165 9.17411 11.25 9.20759C11.25 9.27455 11.25 9.375 11.25 9.54241C11.25 9.7433 11.183 9.91071 11.1161 10.1116C11.0491 10.3125 10.8482 10.4799 10.5804 10.6808C10.3125 10.8817 10.0781 10.9821 9.87723 10.9821C9.54241 11.0491 9.24107 11.0491 8.97321 10.9821C8.63839 10.9152 8.16964 10.7812 7.63393 10.5134C6.49554 10.0446 5.45759 9.10714 4.52009 7.76786L4.45312 7.70089C3.95089 7.03125 3.71652 6.39509 3.71652 5.79241C3.71652 5.22321 3.91741 4.72098 4.3192 4.28571L4.35268 4.25223C4.48661 4.1183 4.65402 4.01786 4.85491 4.01786H5.2567C5.32366 4.01786 5.39062 4.05134 5.45759 4.08482C5.52455 4.1183 5.55804 4.18527 5.625 4.3192L6.1942 5.69196C6.26116 5.82589 6.26116 5.95982 6.22768 6.02679C6.09375 6.26116 5.95982 6.46205 5.79241 6.62946C5.69196 6.72991 5.625 6.79688 5.625 6.86384C5.59152 6.9308 5.625 6.96429 5.69196 7.03125C5.9933 7.63393 6.36161 8.0692 6.79688 8.40402C7.09821 8.67188 7.56696 8.93973 8.20312 9.24107C8.37054 9.34152 8.50446 9.34152 8.60491 9.20759C8.87277 8.87277 9.07366 8.63839 9.20759 8.47098C9.24107 8.40402 9.30804 8.33705 9.375 8.33705C9.44196 8.33705 9.50893 8.37054 9.60938 8.37054C9.77679 8.4375 10.2121 8.63839 10.8817 8.97321Z" fill="#FAA61A"/>
</svg>
