<svg width="61" height="65" viewBox="0 0 61 65" fill="none" xmlns="http://www.w3.org/2000/svg">
<path fill-rule="evenodd" clip-rule="evenodd" d="M30.1205 0.0505524C30.2582 -0.0165297 30.4189 -0.0168672 30.5568 0.0496366L60.7172 14.5951C60.8901 14.6785 61 14.8535 61 15.0454L61 50.2777C61 50.4712 60.8883 50.6474 60.7133 50.7299L30.5529 64.9521C30.4172 65.0161 30.2599 65.0158 30.1245 64.9512L0.284991 50.729C0.110957 50.6461 0.000117139 50.4705 0.00011713 50.2777L0.000117125 15.3791C-3.78772e-05 15.3719 -3.8414e-05 15.3647 0.000117124 15.3575L0.00011711 15.0454C0.000117132 14.8542 0.10916 14.6798 0.281032 14.596L30.1205 0.0505524ZM1.00012 16.1609L1.00012 49.9621L29.8396 63.7077L29.8396 29.9064L1.00012 16.1609ZM30.8396 29.9064L30.8396 63.7113L60 49.9607L60 16.0079L51.3744 20.1191L51.3744 32.1767C51.3744 32.3712 51.2615 32.5481 51.0852 32.6301L42.7429 36.5089C42.5881 36.5809 42.4072 36.5689 42.2632 36.477C42.1193 36.3852 42.0321 36.2263 42.0321 36.0555L42.0321 24.5718L30.8396 29.9064ZM43.0321 24.0952L43.0321 35.2716L50.3744 31.8578L50.3744 20.5957L43.0321 24.0952ZM50.8738 19.2499L21.5469 5.34228L30.3408 1.05567L59.5211 15.1284L50.8738 19.2499ZM20.3961 5.90326L49.7099 19.8047L42.5337 23.225L13.5808 9.22544L20.3961 5.90326ZM12.4368 9.78306L1.31633 15.2038L30.3396 29.037L41.3768 23.7764L12.4368 9.78306ZM3.9005 39.3928C4.02102 39.1444 4.32013 39.0407 4.56858 39.1612L13.2317 43.3632C13.4801 43.4837 13.5838 43.7828 13.4633 44.0313C13.3428 44.2797 13.0437 44.3834 12.7953 44.2629L4.13216 40.0609C3.88371 39.9404 3.77999 39.6413 3.9005 39.3928ZM3.89788 44.2468C4.01537 43.9969 4.3132 43.8895 4.5631 44.007L9.37593 46.2696C9.62583 46.3871 9.73317 46.685 9.61569 46.9349C9.4982 47.1848 9.20038 47.2921 8.95047 47.1746L4.13765 44.912C3.88775 44.7945 3.7804 44.4967 3.89788 44.2468Z" fill="#FAA61A"/>
</svg>
