<svg width="20" height="20" viewBox="0 0 20 20" fill="none" xmlns="http://www.w3.org/2000/svg">
<path d="M13.8462 8.46154C13.8462 11.4303 11.4303 13.8462 8.46154 13.8462C5.49279 13.8462 3.07692 11.4303 3.07692 8.46154C3.07692 5.49279 5.49279 3.07692 8.46154 3.07692C11.4303 3.07692 13.8462 5.49279 13.8462 8.46154ZM20 18.4615C20 18.0529 19.8317 17.6562 19.5553 17.3798L15.4327 13.2572C16.4062 11.851 16.9231 10.1683 16.9231 8.46154C16.9231 3.78606 13.137 0 8.46154 0C3.78606 0 0 3.78606 0 8.46154C0 13.137 3.78606 16.9231 8.46154 16.9231C10.1683 16.9231 11.851 16.4062 13.2572 15.4327L17.3798 19.5433C17.6562 19.8317 18.0529 20 18.4615 20C19.3029 20 20 19.3029 20 18.4615Z" fill="#CF0405"/>
</svg>
