<svg width="32" height="32" viewBox="0 0 32 32" fill="none" xmlns="http://www.w3.org/2000/svg">
<path d="M28.201 0.0667507C30.1561 0.131751 31.8671 1.81177 31.9331 3.80379C32.0221 11.9489 32.0221 20.095 31.9331 28.24C31.8671 30.2291 30.1301 31.9561 28.106 31.9781H22.258C21.847 31.9491 21.756 31.8371 21.729 31.4481V19.2589C21.758 18.8469 21.87 18.7569 22.258 18.7289H25.92L26.399 15.1059H22.258C21.847 15.0769 21.756 14.9649 21.729 14.5759C21.729 12.3519 21.204 9.49885 23.461 8.92984C23.809 8.84284 24.168 8.81484 24.525 8.81184H26.474V5.67781C23.168 5.3058 19.2159 5.53481 18.2209 9.13384C18.0409 9.78485 17.9759 10.4599 17.9739 11.1339V14.5759C17.9439 14.9879 17.8319 15.0779 17.4439 15.1059H13.7789V18.7289H17.4439C17.8549 18.7579 17.9459 18.8699 17.9739 19.2589V31.4481C17.9439 31.8601 17.8319 31.9511 17.4439 31.9781C12.8959 31.9781 8.34683 32.0281 3.79879 31.9771C1.84477 31.9121 0.132751 30.2301 0.0667507 28.24C-0.0222502 20.095 -0.0222502 11.9489 0.0667507 3.80379C0.131751 1.84677 1.81177 0.132751 3.79879 0.0667507C11.9329 -0.0222502 20.067 -0.0222502 28.201 0.0667507V0.0667507ZM3.89879 1.12576C2.46177 1.14176 1.17476 2.35677 1.12576 3.82779C1.03576 11.9569 1.03576 20.088 1.12576 28.217C1.17276 29.65 2.42577 30.9021 3.89879 30.9181H16.9149V19.7889H13.2489C12.8379 19.7599 12.7469 19.6479 12.7199 19.2589V14.5759C12.7489 14.1639 12.8609 14.0739 13.2489 14.0459H16.9149C16.9149 11.4859 16.6919 8.75484 18.2189 6.77782C20.095 4.34979 23.756 4.25179 26.888 4.6598C26.989 4.6728 27.498 4.7228 27.533 5.2098V9.34184C27.503 9.75385 27.391 9.84485 27.003 9.87185C25.639 9.87185 24.072 9.45684 23.161 10.2229C22.837 10.4949 22.787 11.6159 22.787 11.6159V14.0459H27.003C27.481 14.0799 27.544 14.3799 27.528 14.6459L26.909 19.3289C26.831 19.7069 26.744 19.7629 26.384 19.7889H22.787V30.9181C24.584 30.9181 26.381 30.9371 28.177 30.9171C29.584 30.8701 30.8261 29.663 30.8741 28.217C30.9641 20.088 30.9641 11.9569 30.8741 3.82779C30.8271 2.41877 29.621 1.17476 28.177 1.12676C20.085 1.03776 11.9919 1.12576 3.89879 1.12576V1.12576Z" fill="#FAA61A"/>
</svg>
