<svg width="23" height="18" viewBox="0 0 23 18" fill="none" xmlns="http://www.w3.org/2000/svg">
<path d="M17.1793 6.7349C17.3905 6.7349 17.6017 6.84051 17.7777 6.98132C17.9186 7.15734 18.0242 7.36856 18.0242 7.57978V9.26955C18.0242 9.51597 17.9186 9.72719 17.7777 9.86801C17.6017 10.044 17.3905 10.1144 17.1793 10.1144H16.8977V12.3675C16.8977 12.6843 16.7568 12.9659 16.5456 13.1771C16.3344 13.3884 16.0528 13.494 15.7711 13.494H15.2079C15.2079 14.1276 14.9615 14.6557 14.539 15.0781C14.0814 15.5358 13.5533 15.747 12.9549 15.747H8.13199L4.50604 17.8592C4.22441 18 3.94279 18.0352 3.66116 17.9648C3.34433 17.8944 3.0979 17.7184 2.95709 17.4367L0.140814 12.5435C0 12.297 -0.0352034 12.0154 0.0352034 11.6986C0.10561 11.417 0.281628 11.1705 0.563255 11.0297L3.37953 9.37516V7.7206C3.37953 7.33336 3.44994 6.98132 3.66116 6.62929C3.87238 6.27726 4.1188 5.99563 4.47084 5.78441L6.75906 4.41147V8.70629C6.75906 9.41036 7.00548 10.0088 7.49833 10.5017C7.99118 10.9945 8.58964 11.2409 9.29371 11.2409C9.99778 11.2409 10.5962 10.9945 11.0891 10.5017C11.5819 10.0088 11.8284 9.41036 11.8284 8.70629V6.7349H17.1793ZM22.3894 5.43237C22.5302 5.714 22.5302 5.99563 22.4598 6.27726C22.3894 6.59409 22.2134 6.80531 21.9669 6.94612L19.1507 8.56548V7.57978C19.1507 7.05173 18.9394 6.59409 18.5522 6.20685C18.165 5.81961 17.7073 5.60839 17.1793 5.60839H10.7018V8.70629C10.7018 9.12873 10.561 9.44557 10.2794 9.72719C9.99778 10.0088 9.68095 10.1144 9.29371 10.1144C8.87127 10.1144 8.55444 10.0088 8.27281 9.72719C7.99118 9.44557 7.88557 9.12873 7.88557 8.70629V4.27066C7.88557 3.84822 8.06159 3.53139 8.41362 3.32017L9.57534 2.58089C9.92737 2.36967 10.3498 2.22886 10.7723 2.22886H14.3982L18.0242 0.116654C18.2706 -0.0241598 18.5522 -0.0241598 18.869 0.0462471C19.1507 0.116654 19.3971 0.292671 19.5731 0.539095L22.3894 5.43237Z" fill="#FAA61A"/>
</svg>
