<svg width="16" height="12" viewBox="0 0 16 12" fill="none" xmlns="http://www.w3.org/2000/svg">
<path d="M15.2727 3.86932C15.017 4.15057 14.7273 4.39773 14.4205 4.6108C12.9972 5.57386 11.5653 6.54545 10.1761 7.55114C9.46023 8.07955 8.57386 8.72727 7.64489 8.72727H7.63636H7.62784C6.69886 8.72727 5.8125 8.07955 5.09659 7.55114C3.70739 6.53693 2.27557 5.57386 0.860795 4.6108C0.545455 4.39773 0.255682 4.15057 0 3.86932V10.6364C0 11.3864 0.613636 12 1.36364 12H13.9091C14.6591 12 15.2727 11.3864 15.2727 10.6364V3.86932ZM15.2727 1.36364C15.2727 0.613636 14.6506 0 13.9091 0H1.36364C0.451705 0 0 0.715909 0 1.55114C0 2.3267 0.860796 3.28977 1.46591 3.69886C2.78693 4.61932 4.125 5.53977 5.44602 6.46875C6 6.85227 6.9375 7.63636 7.62784 7.63636H7.63636H7.64489C8.33523 7.63636 9.27273 6.85227 9.82671 6.46875C11.1477 5.53977 12.4858 4.61932 13.8153 3.69886C14.5653 3.17898 15.2727 2.31818 15.2727 1.36364Z" fill="#FAA61A"/>
</svg>
