<svg width="51" height="50" viewBox="0 0 51 50" fill="none" xmlns="http://www.w3.org/2000/svg">
<path fill-rule="evenodd" clip-rule="evenodd" d="M37.0841 45.917L37.079 45.9201C33.2715 48.1544 29.2044 49.2059 24.866 49.2059C20.387 49.2059 16.1966 48.1513 12.5393 45.798C12.53 45.7928 12.5217 45.7876 12.5134 45.7824L11.5717 45.2443C11.4413 45.1698 11.286 45.148 11.1391 45.1863L2.69941 47.3586L4.98448 39.1746C5.02588 39.0245 5.00622 38.8651 4.92963 38.7306L4.39148 37.7888C4.38424 37.7775 4.37803 37.7661 4.36975 37.7547C1.74833 33.8189 0.567508 29.6255 0.567508 24.8867C0.567508 20.5421 1.61897 16.476 3.84505 12.8052H3.84609L3.85333 12.7917C5.95212 9.11679 8.97094 6.09177 12.6542 3.85223C16.3353 1.74827 20.4035 0.567446 24.866 0.567446C28.0101 0.567446 31.1593 1.22254 34.0487 2.4044C36.9496 3.72494 39.5751 5.43564 41.9378 7.8004C44.3109 10.1745 46.152 12.8083 47.4663 15.7009C48.7796 18.7269 49.4326 21.7426 49.4326 24.8867C49.4326 29.3544 48.2528 33.4236 46.0205 37.1027C43.782 40.7921 40.7591 43.8161 37.0841 45.917V45.917ZM16.8393 12.117H15.3987C14.4922 12.117 13.7688 12.5723 13.2327 13.1095L13.1126 13.2295C13.1075 13.2336 13.1023 13.2388 13.0981 13.244C11.5737 14.8967 10.8006 16.8227 10.8006 19.0001C10.8006 21.3038 11.6969 23.6924 13.5442 26.1575C13.5587 26.1772 13.5752 26.1958 13.5918 26.2134L13.8008 26.4214C17.1839 31.2493 20.9603 34.6789 25.1455 36.4093C27.0994 37.3842 28.8132 37.8768 30.0478 38.1241C31.0817 38.3808 32.2211 38.3777 33.4558 38.1366C34.3251 38.119 35.2575 37.6843 36.2334 36.9526C36.7136 36.5914 37.1597 36.2417 37.5188 35.8836C37.8779 35.5234 38.178 35.126 38.3343 34.6603C38.3622 34.5734 38.3922 34.4865 38.4223 34.3995C38.6272 33.7993 38.8404 33.1752 38.8404 32.4539V31.2534C38.8404 31.1158 38.7855 30.9843 38.6893 30.8871C38.5868 30.7856 38.4264 30.6708 38.2556 30.5611C38.0818 30.4503 37.8665 30.3272 37.6233 30.204L37.2901 29.9815C37.2725 29.9701 37.2539 29.9587 37.2342 29.9494C34.8342 28.7489 33.256 28.0183 32.634 27.7699C32.573 27.7451 32.5078 27.7327 32.4415 27.7327C32.3205 27.7327 32.2159 27.713 32.0886 27.6851C32.0773 27.682 32.0648 27.6788 32.0504 27.6757C31.9396 27.6509 31.772 27.6126 31.6012 27.6126C31.3114 27.6126 31.0755 27.7534 30.9192 27.8869C30.7743 28.0121 30.6532 28.1673 30.5663 28.3257C30.3769 28.5616 30.1503 28.8359 29.8843 29.1577C29.8253 29.2281 29.7653 29.3016 29.7022 29.3771C29.342 29.8128 28.9198 30.3261 28.4365 30.9295L28.4271 30.9429C28.3195 31.0858 28.2398 31.1085 28.1788 31.1116C28.0887 31.1178 27.9263 31.0847 27.6675 30.9295C27.653 30.9212 27.6375 30.9129 27.623 30.9057C25.3473 29.8273 23.7256 28.8918 22.7041 27.9831C22.6948 27.9759 22.6855 27.9676 22.6751 27.9603C21.1807 26.8085 19.9088 25.31 18.8615 23.2143C18.8367 23.1646 18.8046 23.1191 18.7653 23.0797C18.7197 23.0342 18.6866 23.0011 18.6608 22.9731C18.669 22.94 18.6742 22.9059 18.6763 22.8717C18.6825 22.8593 18.697 22.8324 18.7332 22.7869C18.8139 22.6823 18.9371 22.5581 19.1254 22.3698C19.7733 21.7209 20.2804 20.954 20.7689 20.0982C20.774 20.0899 20.7782 20.0816 20.7823 20.0723C20.8972 19.8425 20.9293 19.5621 20.9106 19.2941C20.891 19.0219 20.8154 18.7217 20.6705 18.4258L18.6369 13.5172C18.6328 13.5058 18.6276 13.4944 18.6225 13.4841L18.61 13.4603C18.5003 13.2399 18.3979 13.0349 18.2892 12.8725C18.1681 12.6903 18.016 12.5247 17.7904 12.4119C17.779 12.4057 17.7676 12.4005 17.7562 12.3943C17.5431 12.2867 17.2046 12.117 16.8393 12.117V12.117Z" stroke="#FAA61A" stroke-width="1.12" stroke-linejoin="round"/>
</svg>
