<svg width="62" height="65" viewBox="0 0 62 65" fill="none" xmlns="http://www.w3.org/2000/svg">
<path fill-rule="evenodd" clip-rule="evenodd" d="M6.61673 24.8528C7.26364 24.6976 7.93889 24.6154 8.63333 24.6154C8.73286 24.6154 8.83202 24.6171 8.93078 24.6204C9.20015 24.6296 9.41379 24.8506 9.41379 25.1201V41.4271C9.41379 41.6966 9.20015 41.9177 8.93078 41.9268C8.83202 41.9302 8.73286 41.9319 8.63333 41.9319C3.86383 41.9319 0 38.054 0 33.2736C0 29.5591 2.33296 26.3895 5.61099 25.1607C5.77461 11.2382 17.0776 0 31 0C44.9224 0 56.2254 11.2382 56.389 25.1607C59.667 26.3895 62 29.5591 62 33.2736C62 36.9875 59.6679 40.1566 56.3908 41.3859V44.8077C56.3908 54.2967 48.2194 61.9536 38.1243 62.1816C37.8861 63.7757 36.5149 65 34.8563 65C33.0298 65 31.5517 63.5152 31.5517 61.6868C31.5517 59.8584 33.0298 58.3736 34.8563 58.3736C36.5112 58.3736 37.88 59.5925 38.1227 61.1814C47.7361 60.9549 55.3908 53.6765 55.3908 44.8077V41.6926C54.7416 41.849 54.0638 41.9319 53.3667 41.9319C53.2671 41.9319 53.168 41.9302 53.0692 41.9268C52.7998 41.9177 52.5862 41.6966 52.5862 41.4271V25.1201C52.5862 24.8506 52.7998 24.6296 53.0692 24.6204C53.168 24.6171 53.2671 24.6154 53.3667 24.6154C54.0611 24.6154 54.7364 24.6976 55.3833 24.8528C55.0583 11.6225 44.2646 1 31 1C17.7354 1 6.94167 11.6225 6.61673 24.8528ZM8.41379 25.6185C4.3009 25.7351 1 29.1164 1 33.2736C1 37.4309 4.3009 40.8122 8.41379 40.9288V25.6185ZM53.5862 25.6185V40.9288C57.6991 40.8122 61 37.4309 61 33.2736C61 29.1164 57.6991 25.7351 53.5862 25.6185ZM34.8563 59.3736C33.585 59.3736 32.5517 60.4078 32.5517 61.6868C32.5517 62.9658 33.585 64 34.8563 64C36.1277 64 37.1609 62.9658 37.1609 61.6868C37.1609 60.4078 36.1277 59.3736 34.8563 59.3736Z" fill="#FAA61A"/>
</svg>
