<svg width="32" height="32" viewBox="0 0 32 32" fill="none" xmlns="http://www.w3.org/2000/svg">
<path fill-rule="evenodd" clip-rule="evenodd" d="M16.57 0L17.12 0.002L17.649 0.004L18.158 0.007L18.647 0.01L19.116 0.015L19.563 0.021L19.991 0.027L20.398 0.034L20.785 0.042L21.152 0.051L21.498 0.06L21.824 0.071L22.129 0.082L22.414 0.094L22.679 0.107L22.951 0.122L23.1 0.131L23.257 0.142L23.422 0.154L23.594 0.169L23.773 0.187L23.958 0.208L24.053 0.22L24.149 0.233L24.247 0.246L24.347 0.261L24.447 0.277L24.549 0.294L24.652 0.312L24.756 0.331L24.861 0.352L24.968 0.374L25.075 0.398L25.184 0.422L25.293 0.449L25.403 0.477L25.514 0.506L25.626 0.537L25.739 0.57L25.852 0.604L25.966 0.64L26.08 0.678L26.195 0.718L26.311 0.76L26.427 0.804L26.543 0.849L26.66 0.897L26.777 0.947L26.894 0.999L27.011 1.053L27.128 1.11L27.246 1.169L27.364 1.23L27.481 1.294L27.599 1.36L27.716 1.428L27.834 1.5L27.951 1.573L28.067 1.65L28.184 1.729L28.3 1.811L28.416 1.895L28.531 1.983L28.646 2.073L28.76 2.166L28.874 2.263L28.987 2.362L29.099 2.464L29.211 2.57L29.321 2.679L29.43 2.789L29.536 2.901L29.638 3.013L29.738 3.126L29.834 3.24L29.927 3.354L30.018 3.469L30.105 3.585L30.19 3.701L30.272 3.817L30.351 3.934L30.428 4.051L30.502 4.168L30.573 4.285L30.642 4.403L30.708 4.521L30.772 4.639L30.834 4.757L30.893 4.875L30.95 4.992L31.005 5.11L31.057 5.228L31.107 5.345L31.156 5.462L31.202 5.579L31.246 5.695L31.288 5.811L31.329 5.927L31.367 6.041L31.404 6.156L31.439 6.27L31.472 6.383L31.504 6.495L31.534 6.607L31.562 6.718L31.589 6.828L31.614 6.937L31.638 7.045L31.661 7.152L31.682 7.258L31.703 7.363L31.721 7.466L31.739 7.569L31.756 7.67L31.771 7.77L31.786 7.869L31.812 8.062L31.835 8.249L31.854 8.43L31.871 8.604L31.886 8.77L31.898 8.929L31.909 9.08L31.929 9.357L31.937 9.617L31.945 9.898L31.953 10.2L31.96 10.522L31.966 10.865L31.972 11.229L31.977 11.613L31.982 12.018L31.99 12.89L31.996 13.844L31.999 14.881L32 16V16.57L31.998 17.12L31.996 17.649L31.993 18.158L31.99 18.647L31.985 19.116L31.979 19.563L31.973 19.991L31.966 20.398L31.958 20.785L31.949 21.152L31.94 21.498L31.929 21.824L31.918 22.129L31.906 22.414L31.893 22.679L31.878 22.951L31.869 23.1L31.858 23.257L31.846 23.422L31.831 23.594L31.813 23.773L31.792 23.958L31.78 24.053L31.767 24.149L31.754 24.247L31.739 24.347L31.723 24.447L31.706 24.549L31.688 24.652L31.669 24.756L31.648 24.861L31.626 24.968L31.602 25.075L31.578 25.184L31.551 25.293L31.523 25.403L31.494 25.514L31.463 25.626L31.43 25.739L31.396 25.852L31.36 25.966L31.322 26.08L31.282 26.195L31.24 26.311L31.196 26.427L31.151 26.543L31.103 26.66L31.053 26.777L31.001 26.894L30.947 27.011L30.89 27.128L30.831 27.246L30.77 27.364L30.706 27.481L30.64 27.599L30.572 27.716L30.5 27.834L30.427 27.951L30.35 28.067L30.271 28.184L30.189 28.3L30.105 28.416L30.017 28.531L29.927 28.646L29.834 28.76L29.737 28.874L29.638 28.987L29.536 29.099L29.43 29.211L29.321 29.321L29.211 29.43L29.099 29.536L28.987 29.638L28.874 29.737L28.76 29.834L28.646 29.927L28.531 30.017L28.416 30.105L28.3 30.189L28.184 30.271L28.067 30.35L27.951 30.427L27.834 30.5L27.716 30.572L27.599 30.64L27.481 30.706L27.364 30.77L27.246 30.831L27.128 30.89L27.011 30.947L26.894 31.001L26.777 31.053L26.66 31.103L26.543 31.151L26.427 31.196L26.311 31.24L26.195 31.282L26.08 31.322L25.966 31.36L25.852 31.396L25.739 31.43L25.626 31.463L25.514 31.494L25.403 31.523L25.293 31.551L25.184 31.578L25.075 31.602L24.968 31.626L24.861 31.648L24.756 31.669L24.652 31.688L24.549 31.706L24.447 31.723L24.347 31.739L24.247 31.754L24.149 31.767L24.053 31.78L23.958 31.792L23.773 31.813L23.594 31.831L23.422 31.846L23.257 31.858L23.1 31.869L22.951 31.878L22.679 31.893L22.414 31.906L22.129 31.918L21.824 31.929L21.498 31.94L21.152 31.949L20.785 31.958L20.398 31.966L19.991 31.973L19.563 31.979L19.116 31.985L18.647 31.99L18.158 31.993L17.649 31.996L17.12 31.998L16.57 32H16H15.43L14.88 31.998L14.351 31.996L13.842 31.993L13.353 31.99L12.884 31.985L12.437 31.979L12.009 31.973L11.602 31.966L11.215 31.958L10.848 31.949L10.502 31.94L10.176 31.929L9.871 31.918L9.586 31.906L9.321 31.893L9.189 31.885L9.047 31.876L8.896 31.865L8.736 31.851L8.568 31.835L8.391 31.816L8.208 31.794L8.018 31.768L7.92 31.753L7.821 31.738L7.721 31.722L7.619 31.704L7.516 31.686L7.411 31.666L7.305 31.645L7.199 31.623L7.091 31.6L6.982 31.575L6.872 31.549L6.761 31.522L6.649 31.494L6.537 31.463L6.423 31.432L6.309 31.399L6.195 31.364L6.08 31.328L5.964 31.29L5.848 31.251L5.732 31.209L5.615 31.166L5.499 31.122L5.382 31.075L5.264 31.027L5.147 30.977L5.03 30.925L4.913 30.87L4.796 30.814L4.679 30.756L4.563 30.696L4.446 30.634L4.33 30.569L4.215 30.503L4.1 30.434L3.986 30.363L3.872 30.29L3.759 30.214L3.646 30.136L3.535 30.056L3.424 29.973L3.314 29.887L3.206 29.8L3.098 29.709L2.991 29.616L2.886 29.521L2.782 29.422L2.679 29.321L2.563 29.204L2.45 29.085L2.342 28.967L2.237 28.848L2.135 28.729L2.037 28.61L1.942 28.49L1.85 28.371L1.762 28.251L1.676 28.131L1.594 28.012L1.515 27.892L1.439 27.773L1.365 27.653L1.295 27.534L1.227 27.415L1.163 27.296L1.1 27.177L1.041 27.059L0.984 26.941L0.929 26.824L0.877 26.707L0.828 26.59L0.78 26.474L0.735 26.358L0.692 26.243L0.652 26.129L0.613 26.015L0.576 25.902L0.542 25.79L0.509 25.678L0.478 25.567L0.449 25.457L0.421 25.348L0.396 25.24L0.372 25.133L0.349 25.027L0.328 24.922L0.308 24.818L0.29 24.715L0.273 24.613L0.257 24.512L0.243 24.413L0.229 24.315L0.217 24.218L0.206 24.123L0.195 24.029L0.186 23.936L0.169 23.755L0.156 23.58L0.145 23.412L0.135 23.251L0.12 22.949L0.107 22.679L0.094 22.414L0.082 22.129L0.071 21.824L0.06 21.498L0.051 21.152L0.042 20.785L0.034 20.398L0.027 19.991L0.021 19.563L0.015 19.116L0.01 18.647L0.007 18.158L0.004 17.649L0.002 17.12L0 16.57V16V15.43L0.002 14.88L0.004 14.351L0.007 13.842L0.01 13.353L0.015 12.884L0.021 12.437L0.027 12.009L0.034 11.602L0.042 11.215L0.051 10.848L0.06 10.502L0.071 10.176L0.082 9.871L0.094 9.586L0.107 9.321L0.121 9.05L0.129 8.902L0.137 8.747L0.148 8.584L0.161 8.415L0.176 8.239L0.194 8.056L0.204 7.963L0.216 7.868L0.228 7.771L0.241 7.674L0.255 7.575L0.271 7.474L0.287 7.373L0.305 7.27L0.324 7.166L0.345 7.062L0.367 6.956L0.39 6.849L0.415 6.741L0.441 6.632L0.47 6.522L0.499 6.411L0.531 6.3L0.564 6.188L0.6 6.075L0.637 5.961L0.676 5.847L0.717 5.732L0.76 5.617L0.805 5.501L0.853 5.385L0.903 5.268L0.955 5.151L1.009 5.033L1.066 4.916L1.125 4.798L1.187 4.679L1.252 4.561L1.319 4.442L1.388 4.324L1.461 4.205L1.536 4.087L1.614 3.968L1.695 3.849L1.779 3.731L1.866 3.613L1.957 3.495L2.05 3.377L2.146 3.26L2.246 3.143L2.349 3.026L2.455 2.91L2.565 2.794L2.679 2.679L2.794 2.565L2.91 2.455L3.026 2.349L3.143 2.246L3.26 2.146L3.377 2.05L3.495 1.957L3.613 1.866L3.731 1.779L3.849 1.695L3.968 1.614L4.087 1.536L4.205 1.461L4.324 1.388L4.442 1.319L4.561 1.252L4.679 1.187L4.798 1.125L4.916 1.066L5.033 1.009L5.151 0.955L5.268 0.903L5.385 0.853L5.501 0.805L5.617 0.76L5.732 0.717L5.847 0.676L5.961 0.637L6.075 0.6L6.188 0.564L6.3 0.531L6.411 0.499L6.522 0.47L6.632 0.441L6.741 0.415L6.849 0.39L6.956 0.367L7.062 0.345L7.166 0.324L7.27 0.305L7.373 0.287L7.474 0.271L7.575 0.255L7.674 0.241L7.771 0.228L7.868 0.216L7.963 0.204L8.056 0.194L8.239 0.176L8.415 0.161L8.584 0.148L8.747 0.137L8.902 0.129L9.05 0.121L9.321 0.107L9.586 0.094L9.871 0.082L10.176 0.071L10.502 0.06L10.848 0.051L11.215 0.042L11.602 0.034L12.009 0.027L12.437 0.021L12.884 0.015L13.353 0.01L13.842 0.007L14.351 0.004L14.88 0.002L15.43 0H16H16.57V0ZM15.464 0.963L14.947 0.964L14.45 0.966L13.971 0.969L13.512 0.972L13.072 0.976L12.651 0.982L12.249 0.987L11.866 0.994L11.503 1.002L11.158 1.01L10.833 1.019L10.527 1.029L10.24 1.039L9.972 1.051L9.723 1.063L9.599 1.069L9.466 1.075L9.176 1.088L9.02 1.095L8.856 1.105L8.686 1.116L8.509 1.13L8.326 1.147L8.232 1.157L8.137 1.168L8.041 1.179L7.943 1.192L7.844 1.206L7.744 1.221L7.643 1.237L7.541 1.254L7.437 1.273L7.333 1.293L7.228 1.314L7.121 1.337L7.014 1.361L6.907 1.387L6.798 1.415L6.688 1.445L6.578 1.476L6.468 1.509L6.357 1.544L6.245 1.58L6.132 1.619L6.02 1.66L5.907 1.703L5.793 1.748L5.679 1.796L5.565 1.845L5.451 1.897L5.337 1.952L5.222 2.008L5.108 2.068L4.993 2.13L4.879 2.194L4.764 2.261L4.65 2.331L4.536 2.404L4.422 2.479L4.308 2.558L4.194 2.639L4.081 2.724L3.969 2.811L3.857 2.902L3.745 2.996L3.634 3.093L3.523 3.193L3.413 3.297L3.304 3.404L3.206 3.504L3.111 3.606L3.019 3.708L2.93 3.811L2.843 3.915L2.76 4.02L2.679 4.126L2.601 4.233L2.525 4.34L2.453 4.448L2.382 4.557L2.315 4.666L2.249 4.776L2.186 4.886L2.126 4.997L2.068 5.108L2.012 5.219L1.958 5.33L1.906 5.442L1.857 5.554L1.81 5.665L1.764 5.777L1.721 5.889L1.68 6L1.64 6.111L1.603 6.223L1.567 6.333L1.533 6.444L1.5 6.554L1.469 6.664L1.44 6.773L1.413 6.881L1.387 6.989L1.362 7.097L1.339 7.203L1.317 7.309L1.296 7.414L1.277 7.518L1.259 7.621L1.242 7.723L1.226 7.824L1.211 7.924L1.198 8.022L1.185 8.12L1.162 8.311L1.143 8.496L1.127 8.675L1.113 8.848L1.101 9.014L1.092 9.172L1.076 9.465L1.063 9.723L1.051 9.972L1.039 10.24L1.029 10.527L1.019 10.833L1.01 11.158L1.002 11.503L0.994 11.866L0.987 12.249L0.982 12.651L0.976 13.072L0.972 13.512L0.969 13.971L0.966 14.45L0.964 14.947L0.963 15.464L0.962 16L0.963 16.536L0.964 17.053L0.966 17.55L0.969 18.029L0.972 18.488L0.976 18.928L0.982 19.349L0.987 19.751L0.994 20.134L1.002 20.497L1.01 20.842L1.019 21.167L1.029 21.473L1.039 21.76L1.051 22.028L1.063 22.277L1.075 22.534L1.089 22.825L1.097 22.981L1.107 23.146L1.119 23.317L1.133 23.494L1.151 23.677L1.16 23.771L1.171 23.866L1.183 23.963L1.196 24.061L1.21 24.16L1.225 24.26L1.241 24.361L1.258 24.463L1.277 24.567L1.297 24.671L1.318 24.776L1.341 24.882L1.365 24.989L1.391 25.097L1.418 25.205L1.447 25.314L1.478 25.424L1.51 25.534L1.545 25.644L1.581 25.756L1.619 25.867L1.659 25.979L1.701 26.091L1.745 26.204L1.791 26.316L1.84 26.429L1.891 26.542L1.944 26.655L1.999 26.769L2.057 26.882L2.117 26.995L2.18 27.107L2.246 27.22L2.314 27.333L2.384 27.445L2.458 27.557L2.534 27.668L2.613 27.779L2.695 27.89L2.78 28L2.868 28.109L2.959 28.218L3.053 28.326L3.15 28.433L3.25 28.54L3.354 28.646L3.451 28.741L3.549 28.832L3.648 28.922L3.749 29.008L3.851 29.092L3.954 29.174L4.058 29.253L4.163 29.329L4.269 29.403L4.376 29.475L4.484 29.545L4.593 29.612L4.702 29.677L4.812 29.739L4.922 29.8L5.034 29.858L5.145 29.914L5.257 29.969L5.369 30.021L5.481 30.071L5.594 30.119L5.707 30.166L5.82 30.21L5.933 30.253L6.045 30.294L6.158 30.333L6.271 30.37L6.383 30.406L6.495 30.44L6.606 30.473L6.717 30.504L6.828 30.534L6.938 30.562L7.047 30.589L7.156 30.614L7.264 30.638L7.371 30.661L7.478 30.683L7.583 30.703L7.687 30.722L7.79 30.74L7.893 30.757L7.993 30.773L8.093 30.788L8.288 30.815L8.478 30.839L8.661 30.859L8.837 30.876L9.006 30.891L9.167 30.903L9.32 30.914L9.464 30.923L9.723 30.937L9.972 30.949L10.24 30.961L10.527 30.971L10.833 30.981L11.158 30.99L11.503 30.998L11.866 31.006L12.249 31.013L12.651 31.018L13.072 31.024L13.512 31.028L13.971 31.031L14.45 31.034L14.947 31.036L15.464 31.037L16 31.038L16.536 31.037L17.053 31.036L17.55 31.034L18.029 31.031L18.488 31.028L18.928 31.024L19.349 31.018L19.751 31.013L20.134 31.006L20.497 30.998L20.842 30.99L21.167 30.981L21.473 30.971L21.76 30.961L22.028 30.949L22.277 30.937L22.534 30.925L22.825 30.911L22.983 30.902L23.147 30.892L23.319 30.879L23.497 30.864L23.681 30.846L23.776 30.835L23.871 30.824L23.968 30.812L24.067 30.798L24.166 30.784L24.267 30.768L24.369 30.751L24.472 30.733L24.576 30.714L24.681 30.693L24.787 30.671L24.894 30.647L25.002 30.622L25.111 30.595L25.22 30.567L25.33 30.537L25.441 30.505L25.552 30.471L25.664 30.436L25.777 30.398L25.89 30.359L26.003 30.317L26.117 30.274L26.231 30.228L26.345 30.18L26.459 30.13L26.574 30.077L26.689 30.023L26.804 29.965L26.919 29.906L27.034 29.844L27.148 29.779L27.263 29.711L27.378 29.641L27.492 29.568L27.606 29.493L27.72 29.414L27.833 29.333L27.946 29.249L28.059 29.161L28.171 29.071L28.282 28.977L28.393 28.88L28.503 28.78L28.613 28.677L28.721 28.57L28.82 28.47L28.915 28.369L29.007 28.266L29.096 28.163L29.183 28.059L29.266 27.954L29.347 27.848L29.425 27.741L29.5 27.634L29.573 27.526L29.643 27.417L29.711 27.308L29.776 27.199L29.838 27.089L29.899 26.979L29.956 26.868L30.012 26.757L30.065 26.646L30.116 26.535L30.165 26.424L30.212 26.313L30.257 26.202L30.3 26.091L30.34 25.98L30.379 25.869L30.416 25.758L30.452 25.648L30.485 25.538L30.517 25.429L30.547 25.32L30.575 25.211L30.602 25.104L30.628 24.996L30.652 24.89L30.674 24.784L30.696 24.679L30.716 24.574L30.734 24.471L30.752 24.369L30.768 24.267L30.783 24.167L30.797 24.068L30.81 23.97L30.822 23.873L30.844 23.683L30.862 23.499L30.877 23.321L30.89 23.149L30.901 22.984L30.91 22.826L30.924 22.534L30.937 22.277L30.949 22.028L30.961 21.76L30.971 21.473L30.981 21.167L30.99 20.842L30.998 20.497L31.006 20.134L31.013 19.751L31.018 19.349L31.024 18.928L31.028 18.488L31.031 18.029L31.034 17.55L31.036 17.053L31.037 16.536L31.038 16L31.037 14.948L31.033 13.973L31.028 13.077L31.021 12.257L31.016 11.877L31.011 11.516L31.006 11.174L31 10.852L30.993 10.549L30.986 10.265L30.979 10.001L30.971 9.757L30.947 9.425L30.935 9.253L30.921 9.078L30.905 8.898L30.887 8.716L30.868 8.53L30.845 8.341L30.82 8.149L30.807 8.052L30.792 7.955L30.777 7.857L30.76 7.758L30.743 7.659L30.724 7.56L30.705 7.459L30.685 7.359L30.663 7.258L30.64 7.156L30.616 7.055L30.591 6.952L30.564 6.85L30.537 6.747L30.507 6.644L30.477 6.541L30.444 6.437L30.411 6.333L30.376 6.23L30.339 6.125L30.301 6.021L30.261 5.917L30.219 5.813L30.176 5.708L30.13 5.604L30.083 5.5L30.034 5.395L29.983 5.291L29.931 5.187L29.876 5.083L29.819 4.979L29.76 4.875L29.699 4.771L29.636 4.668L29.571 4.565L29.503 4.462L29.434 4.36L29.361 4.257L29.287 4.156L29.21 4.054L29.131 3.953L29.049 3.852L28.965 3.752L28.878 3.652L28.788 3.553L28.696 3.455L28.602 3.358L28.508 3.263L28.412 3.172L28.316 3.083L28.219 2.997L28.121 2.913L28.023 2.832L27.924 2.753L27.824 2.677L27.724 2.603L27.623 2.532L27.522 2.463L27.42 2.396L27.318 2.332L27.215 2.269L27.112 2.209L27.009 2.151L26.905 2.095L26.801 2.041L26.697 1.99L26.592 1.94L26.487 1.892L26.382 1.846L26.277 1.801L26.172 1.759L26.066 1.718L25.961 1.679L25.855 1.642L25.749 1.606L25.644 1.572L25.538 1.539L25.433 1.508L25.328 1.479L25.222 1.451L25.117 1.424L25.012 1.398L24.908 1.374L24.803 1.351L24.699 1.33L24.596 1.309L24.492 1.29L24.389 1.272L24.286 1.254L24.184 1.238L24.083 1.223L23.981 1.209L23.881 1.195L23.78 1.183L23.582 1.16L23.386 1.14L23.192 1.123L23.002 1.108L22.815 1.094L22.632 1.083L22.452 1.072L22.277 1.063L22.028 1.051L21.76 1.039L21.473 1.029L21.167 1.019L20.842 1.01L20.497 1.002L20.134 0.994L19.751 0.987L19.349 0.982L18.928 0.976L18.488 0.972L18.029 0.969L17.55 0.966L17.053 0.964L16.536 0.963L16 0.962L15.464 0.963V0.963Z" fill="#FAA61A"/>
<path d="M24.4786 9.41031C25.539 9.41031 26.3986 8.5507 26.3986 7.49031C26.3986 6.42993 25.539 5.57031 24.4786 5.57031C23.4182 5.57031 22.5586 6.42993 22.5586 7.49031C22.5586 8.5507 23.4182 9.41031 24.4786 9.41031Z" fill="#FAA61A"/>
<path fill-rule="evenodd" clip-rule="evenodd" d="M15.9991 8.07812C20.3691 8.07812 23.9181 11.6271 23.9181 15.9971C23.9181 20.3671 20.3691 23.9161 15.9991 23.9161C11.6291 23.9161 8.08008 20.3671 8.08008 15.9971C8.08008 11.6271 11.6291 8.07812 15.9991 8.07812ZM15.9991 9.16313C19.7711 9.16313 22.8331 12.2251 22.8331 15.9971C22.8331 19.7691 19.7711 22.8311 15.9991 22.8311C12.2271 22.8311 9.16508 19.7691 9.16508 15.9971C9.16508 12.2251 12.2271 9.16313 15.9991 9.16313Z" fill="#FAA61A"/>
</svg>
