<svg width="64" height="48" viewBox="0 0 64 48" fill="none" xmlns="http://www.w3.org/2000/svg">
<path d="M63.0604 16.267L63.0831 16.249L63.1036 16.2286C63.1367 16.1954 63.16 16.1804 63.1721 16.174C63.1781 16.1708 63.1819 16.1694 63.1838 16.1688C63.1847 16.1685 63.1854 16.1683 63.1859 16.1682C63.1864 16.1681 63.1868 16.168 63.187 16.168C63.1871 16.168 63.1885 16.1678 63.1914 16.168C63.1944 16.1681 63.199 16.1686 63.2057 16.1701C63.2085 16.1707 63.2116 16.1715 63.2151 16.1725C63.3126 16.2709 63.3879 16.3506 63.4437 16.425C63.4828 16.477 63.496 16.5059 63.5 16.5154V42C63.5 43.6125 62.9312 44.8617 61.8964 45.8964C60.7463 47.0466 59.5013 47.5 58 47.5H6C4.36245 47.5 3.13385 47.0402 2.12165 45.9155L2.10404 45.896L2.08448 45.8784C0.959808 44.8661 0.5 43.6376 0.5 42V16.5C0.5 16.4117 0.541455 16.3508 0.598607 16.3222C0.640044 16.3015 0.716351 16.2812 0.8125 16.2812C0.887042 16.2812 0.949659 16.2934 0.993346 16.3085C3.77445 18.4555 10.132 23.1907 20.1862 30.3903L21.4155 31.4966L21.4321 31.5116L21.45 31.525L21.4945 31.5584C23.4512 33.0259 24.9772 34.1705 26.2654 34.8167C28.3176 35.9694 30.1485 36.5 32 36.5C33.7244 36.5 35.683 35.9707 37.745 34.6865C39.0309 34.0393 40.554 32.897 42.5056 31.4333L42.55 31.4L42.5562 31.3953L42.5623 31.3904L43.8022 30.3986C53.5432 23.405 60.0502 18.65 63.0604 16.267ZM28.2773 30.084L28.2514 30.0667L28.2236 30.0528C27.2762 29.5791 26.0616 28.7337 24.448 27.3683L24.4305 27.3535L24.4117 27.3404L23.166 26.4684C12.9132 18.9663 5.92544 13.8501 2.3107 10.9833L2.30085 10.9754L2.29062 10.9681L1.41562 10.3431L1.40906 10.3384L1.40235 10.334C0.826496 9.95007 0.5 9.25486 0.5 8.375V6C0.5 4.49868 0.953451 3.25366 2.10355 2.10355C3.13829 1.06881 4.38749 0.5 6 0.5H58C59.4707 0.5 60.725 1.05656 61.8959 2.10408C62.9434 3.27499 63.5 4.52935 63.5 6V8.375C63.5 9.25486 63.1735 9.95007 62.5976 10.334L62.5796 10.346L62.5627 10.3596L61.9393 10.8583C61.939 10.8585 61.9386 10.8588 61.9383 10.8591C58.3229 13.7264 51.3317 18.97 40.8364 26.4667C40.8358 26.4672 40.8351 26.4676 40.8344 26.4681L39.5883 27.3404L39.577 27.3483L39.5661 27.3568C37.8213 28.7277 36.5944 29.5845 35.7519 30.0659L35.7449 30.0699L35.738 30.0742C34.1376 31.059 32.8597 31.5 32 31.5C31.0126 31.5 29.735 31.0557 28.2773 30.084Z" stroke="#FAA61A"/>
</svg>
