<svg width="350" height="88" fill="none" xmlns="http://www.w3.org/2000/svg"><path d="M336.212 2.484c6.241 0 11.318 5.106 11.318 11.383v60.266c0 6.277-5.077 11.383-11.318 11.383H13.788c-6.24 0-11.318-5.106-11.318-11.383V13.867c0-6.277 5.077-11.383 11.318-11.383h322.424z" fill="#C6C6C6"/><path d="M336.212 0H13.788C6.174 0 0 6.21 0 13.867v60.266C0 81.793 6.174 88 13.788 88h322.424C343.826 88 350 81.792 350 74.133V13.867C350 6.209 343.826 0 336.212 0zm0 2.484c6.241 0 11.318 5.106 11.318 11.383v60.266c0 6.277-5.077 11.383-11.318 11.383H13.788c-6.24 0-11.318-5.106-11.318-11.383V13.867c0-6.277 5.077-11.383 11.318-11.383h322.424z" fill="#000"/><path d="M224.11 74.45c.162 0 .256-.082.297-.246l1.482-5.74a.212.212 0 00.005-.12c-.016-.08-.077-.118-.186-.118h-.726c-.217 0-.465.083-.698.238l-5.543 3.87-3.261-3.87a.702.702 0 00-.517-.238h-.716c-.164 0-.266.083-.309.238l-1.474 5.74a.267.267 0 00-.009.137c.013.074.073.11.192.11h.844c.163 0 .265-.083.307-.247l.597-2.31 2.271 2.31a.762.762 0 00.546.246h.527c.18 0 .394-.072.625-.246l3.153-2.31-.603 2.31a.353.353 0 00-.003.137c.015.074.077.11.195.11h3.004zm-15.905-2.737c-.313 1.24-.742 1.661-1.487 1.661h-1.243c-.39 0-.625-.138-.69-.492-.05-.267-.01-.64.126-1.17l.25-.994c.276-1.105.652-1.425 1.36-1.425h1.234c.482 0 .758.12.822.466.041.219-.001.53-.122.959l-.25.995zm-.07 2.737c2.368 0 4.321-2.135 3.922-4.28-.21-1.123-1.042-1.944-2.324-1.944h-4.446c-2.414 0-4.306 2.117-3.909 4.253.21 1.122 1.048 1.971 2.31 1.971h4.447zm-8.265 0c.155 0 .258-.082.3-.246l.144-.584a.253.253 0 00.013-.128c-.013-.073-.066-.118-.185-.118h-4.093c-.436 0-.699-.146-.769-.52-.049-.265.001-.63.133-1.141l.251-.995c.28-1.124.65-1.425 1.43-1.425h4.058c.163 0 .266-.082.308-.246l.154-.583a.196.196 0 00.005-.12c-.017-.08-.076-.118-.186-.118h-6.18c-2.396 0-4.296 2.127-3.899 4.253.214 1.151 1.066 1.971 2.3 1.971h6.216zm-10.929 0c.271 0 .437-.136.513-.41l.336-1.315a.537.537 0 00.015-.21c-.024-.129-.127-.192-.308-.192h-1.452c-.264 0-.438.139-.516.403l-.334 1.314a.508.508 0 00-.006.22c.023.126.126.19.308.19h1.444zm-23.663-10.527h-3.122a.27.27 0 00-.161.053l-4.109 3.05a.27.27 0 01-.372-.046l-2.403-2.957a.28.28 0 00-.21-.1h-6.031a.27.27 0 00-.245.156.277.277 0 00.036.29l3.765 4.629a.278.278 0 01.061.207.276.276 0 01-.109.186l-6.822 5.063h3.123a.266.266 0 00.161-.053l4.769-3.54a.27.27 0 01.37.047l2.805 3.446c.051.064.128.1.21.1h6.029a.269.269 0 00.245-.156.266.266 0 00.024-.15.266.266 0 00-.059-.139l-4.165-5.12a.275.275 0 01-.059-.207.271.271 0 01.108-.185l6.161-4.574zm15.447-2.013l-1.373 5.923a.268.268 0 01-.264.211h-7.71a.269.269 0 01-.257-.184.264.264 0 01-.003-.167.27.27 0 01.094-.137l9.302-7.265a.268.268 0 00.094-.138.271.271 0 00-.26-.351h-6.295a.264.264 0 00-.161.054l-10.94 8.13a.27.27 0 00-.104.155l-.43 1.858a.28.28 0 00.051.232.277.277 0 00.213.103h15.749c.174 0 .304.163.264.335l-.802 3.45a.279.279 0 00.052.232.274.274 0 00.213.103h6.885a.268.268 0 00.263-.21l2.832-12.21a.278.278 0 00-.146-.308.272.272 0 00-.118-.027h-6.884a.273.273 0 00-.265.21zm-36.901 12.544h-6.885a.27.27 0 01-.265-.213.277.277 0 01.001-.122l.802-3.45a.279.279 0 00-.052-.232.274.274 0 00-.213-.103h-15.749a.272.272 0 01-.264-.335l.431-1.858a.275.275 0 01.102-.156l10.94-8.129a.27.27 0 01.161-.054h6.297c.258 0 .37.33.167.489l-9.306 7.265a.275.275 0 00.167.488h7.711a.273.273 0 00.264-.211l1.374-5.923a.272.272 0 01.263-.211h6.886c.174 0 .304.164.264.335l-2.833 12.21a.272.272 0 01-.263.21z" fill="#C20A30"/><path d="M135.152 26.016l-.988 4.751-8.515.94-5.054 23.48c-1.977 9.227-2.142 9.337-12.304 9.337l8.513-39.502c1.319-6.186 6.429-8.783 12.911-8.23l8.514.661-1.099 5.138h-6.207c-3.131 0-3.572 1.106-3.682 1.712l-.382 1.713h8.293zm11.976 5.801h-10.546l1.044-5.138 11.207-1.049c12.029 0 15.819 3.093 14.171 10.607l-4.01 18.563-15.382 1.05c-8.569.607-13.567-2.1-11.59-11.16 1.428-6.795 6.208-9.668 12.964-9.668l7.746.883.33-1.546c.604-2.762-1.485-2.542-5.934-2.542zm72.239-.663l-9.887.829-3.022 13.812c-.769 3.592-.33 4.088 2.693 4.088h6.206l-1.154 5.193-6.317.83c-9.393 0-13.458-2.763-11.81-10.277l4.229-19.556c4.229-.443 4.78-1.438 5.768-4.973h5.768l-1.098 4.916h9.778l-1.154 5.138zM77.306 45.74c-1.484 6.905-6.866 10.11-15.71 10.054h-2.034c-10.6 0-12.69-4.475-11.425-10.274l2.142-9.89c1.482-6.795 6.976-10.111 15.711-10.111h2.032c10.381 0 12.69 4.365 11.482 10L77.306 45.74zm-36.531-8.73c3.131.884 5.272 2.984 4.56 7.239-1.483 9.114-9.23 11.215-17.414 11.16H10.56l7.856-36.188H35.5c10.162 0 14.228 3.37 12.744 10.22-.933 4.42-2.526 6.741-7.47 7.57zm48.013 18.398H78.296l6.262-28.839 15.822-1.105c8.679-.607 12.853 3.37 11.37 10.277l-4.285 19.667c-10.492 0-10.492 0-8.569-8.728l2.306-10.663c.77-3.647.275-4.145-2.581-4.145h-4.724l-5.109 23.536zm84.05 0h-10.492l6.262-28.839 15.822-1.105c8.679-.607 12.853 3.37 11.37 10.277l-4.285 19.667c-10.492 0-10.492 0-8.568-8.728l2.306-10.663c.77-3.647.274-4.145-2.581-4.145h-4.725l-5.109 23.536zm55.046 0h-10.275l6.375-29.39h10.326l-6.426 29.39zm-76.142-14.862h-4.723c-4.121 0-3.955 1.77-4.724 5.25-.824 3.755-.33 4.142 2.638 4.142h4.723l2.086-9.392zm-85.807-9.06h-.33c-3.736 0-4.395 1.712-4.944 4.31L58.52 45.74c-.825 3.646.11 4.144 2.526 4.144h.714c3.79 0 4.393-1.658 4.944-4.31l2.141-9.945c.55-2.596.66-4.144-2.91-4.144zm-34.609 8.288h-5.713l-2.087 9.668h4.12c3.24 0 4.559-.553 5.219-3.481l.769-3.37c.274-1.216-.276-2.817-2.308-2.817zm-2.58-14.641l-1.868 8.673h5.162c2.143 0 3.296-1.27 3.901-2.982l.549-2.432c.493-2.154-.055-3.314-3.625-3.26h-4.12zm201.169-.884h-.88c-3.35 0-5.272-1.215-4.889-2.872l.497-2.267c.273-1.435 2.526-2.707 5.931-2.707h.824c3.297 0 5.274 1.272 4.889 2.874l-.494 2.265c-.276 1.492-2.471 2.707-5.878 2.707z" fill="#1F3876"/><path d="M331.547 55.001l-2.161-1.454-.801.05 2.061 1.391a.23.23 0 01.037.05l1.902 2.272-.049-.856-.989-1.453zm.296 6.172l-1.223-1.701-.912-.373.358.323c.012.012.012.012.036.025l1.111 1.552a.177.177 0 01.026.087l.197 1.577.518.15-.085-1.206-.026-.434zm-1.358-10.544l1.309 1.664-.432-1.328-1.654-1.54-1.395-.235 2.123 1.402a.22.22 0 01.049.037zm-1.223 13.45l-.567-.373.593 1.017a.245.245 0 01.025.087l.159 1.615.396.2-.037-1.49-.569-1.057zm-13.384-11.326a.23.23 0 01-.148.05c-.025 0-.062 0-.086-.025a.173.173 0 01-.049-.236l4.087-6.83-5.051-1.254-6.493 7.003a.18.18 0 01-.124.05c-.05 0-.075 0-.112-.025a.188.188 0 01-.036-.236l4.297-7.35-3.742-.92-7.618 8.419 7.025 1.167 7.742 1.292 4.482.745 6.456-7.264-4.443-1.167-6.187 6.581zm7.742 3.005c-.025.037-.061.076-.012.136.889 1.243 1.185 2.944.814 4.52-.284 1.193-1.073 2.844-3.197 3.95-1.394.744-2.789.882-4.123.423-1.718-.597-3.249-2.187-4.223-4.346l-1.717-.101c.173 2.422 1.939 4.88 4.383 6.035 2.285 1.068 4.728.82 6.706-.708 2.321-1.776 2.863-4.01 2.912-5.55.087-2.024-.679-3.812-1.246-4.322-.123-.112-.248-.075-.297-.037zm-10.755 3.217l.136-.684-1.877-.421.087 1.03 1.654.075zm-1.357-40.16c-1.261-.31-2.507-.646-3.754-.956a73.784 73.784 0 011.655 5.427l1.308.546a3.689 3.689 0 01-.271-.956 5.422 5.422 0 01.357-2.906c.161-.422.409-.819.705-1.154z" fill="#fff"/><path d="M326.188 26.353a3.014 3.014 0 01-1.27 1.924.231.231 0 01-.088.026c-.06 0-.109-.026-.148-.087a.183.183 0 01-.012-.137c-.061-.062-.05-.149.012-.223.085-.086.164-.177.236-.273.22-.447.344-.894.357-1.341.013-.585-.161-1.18-.433-1.74a3.015 3.015 0 00-1.197-1.265 2.654 2.654 0 00-1.791-.336.168.168 0 01-.134-.037.171.171 0 01-.063-.125c0-.024 0-.05.012-.074-.012-.013-.025-.024-.025-.037-.024-.05-.01-.112.013-.162a.16.16 0 01.075-.061 2.718 2.718 0 011.097-.175c.397-.025.816.037 1.186.186a3.332 3.332 0 011.779 1.615c.345.683.542 1.515.394 2.322zm1.827 4.185c.075.037.101.15.062.223-.024.063-.086.087-.16.087h-.06l-4.063-1.639-1.124-.298c0 .013 0 .025-.012.037-.039.063-.098.087-.174.074a2.718 2.718 0 01-1.37-.534l-.098-.024-5.915-2.049c-.061-.037-.11-.087-.11-.162 0-.036.01-.074.023-.098l.075-.075.801-.298.778-.285c.038-.038.076-.038.125-.025l2.9.968a5.726 5.726 0 01-.122-.894c-.049-.82.135-1.677.568-2.372.233-.41.568-.77.926-1.067l.1-.1c-.607-.187-1.2-.385-1.804-.584l-1.112-.372c-.358-.125-.729-.26-1.086-.373-.075-.025-.137-.099-.137-.174 0-.025.013-.036.013-.05 0-.012.013-.012.013-.024a.2.2 0 01-.026-.149c.026-.087.125-.137.223-.111.914.247 2.273.707 3.248 1.043.481.185.888.322 1.137.396.072-.062.148-.136.233-.198.086-.05.185-.038.234.037a.154.154 0 01.039.112.204.204 0 01-.039.112c.039.062.012.137-.037.198-.185.175-.332.348-.493.535-.284.348-.52.732-.704 1.141a4.091 4.091 0 00-.296 1.926c.036.334.087.683.185.968.099.286.234.584.409.845.233.384.518.707.85.992.125.063.259.125.384.175l2.394.211v.012h.076c.023 0 .049 0 .085.013l3.061 1.85zm.964 1.738c.02.026.032.058.034.091a.175.175 0 01-.021.096l-.915 1.652c-.037.049-.086.087-.16.087h-.011a.195.195 0 01-.137-.1c-.309-.683-.888-1.143-1.284-1.266-.186-.075-.321-.075-.431-.013-.199.111-.434.87-.397 3.85.012.098-.06.173-.161.173h-.01a.157.157 0 01-.151-.099.151.151 0 01-.011-.063c-.124-1.266.014-5.24.024-5.4 0-.076.039-.125.099-.15.062-.025.136-.025.186.025.493.459 1.333 1.092 1.58 1.117l.21.013c.395.025.913.062 1.36-.062a.188.188 0 01.196.049zm1.506 11.138c.025.113.05.225.062.324.049.31.012.621-.049.906-.083.282-.209.55-.371.796a2.7 2.7 0 01-1.285.992c-.024.013-.036.013-.059.013a.188.188 0 01-.161-.111.156.156 0 010-.113h-.014c-.062-.087-.025-.198.05-.247.125-.076.235-.175.334-.262.166-.21.307-.44.419-.683.185-.385.259-.781.21-1.155a1.509 1.509 0 00-.494-.968c-.285-.248-.692-.397-1.172-.46a.172.172 0 01-.149-.198s.012-.024.012-.037c-.024-.025-.049-.05-.049-.087-.012-.087.049-.174.148-.199.37-.05.715-.012 1.025.087.21.037.431.099.641.236.434.248.754.695.902 1.166zm-5.062-5.76a.157.157 0 01-.071-.102.158.158 0 01.021-.123c.025-.049.087-.098.148-.098.037 0 .05 0 .076.011.653.349 1.579.262 1.814.212.148-.248.617-1.826.506-3.005-.011-.05.012-.087.062-.125a.246.246 0 01.098-.049.167.167 0 01.187.15c.282 2.483.344 3.587-.088 3.973a.653.653 0 01-.48.186c-.495 0-1.199-.372-2.273-1.03zm-2.037-1.85a.731.731 0 01-.532.197 1.41 1.41 0 01-.321-.036c-1.185-.298-5.888-1.54-5.938-1.552-.061-.026-.124-.087-.124-.175 0-.036-.024-1.017-.79-1.117-.79-.112-1.235 1.292-1.235 1.303-.024.075-.098.125-.197.112a.156.156 0 01-.097-.055.163.163 0 01-.038-.106v-2.46c0-.061.024-.11.061-.148a.205.205 0 01.148-.025l9.236 2.596a.194.194 0 01.124.137c.011.087.135.93-.297 1.328zm-.606 3.29a.394.394 0 01-.072.136.236.236 0 01-.089.025c-.024 0-.036 0-.049-.012l-6.358-1.763a.167.167 0 01-.124-.187l.088-1.552a.15.15 0 01.085-.136c.062-.026.125-.026.174.012l1.049.707 4.445 1.218.851-.882c.062-.05.149-.063.21-.025.062.025.1.1.087.174l-.297 2.285zm-8.642-9.748a.192.192 0 01-.123-.149l-.038-.857c0-.063.024-.124.074-.161a.2.2 0 01.149-.025c.308.099 7.532 2.16 8.36 2.57.876.398 1.035.67 1.035 1.577 0 .833-.036 1.13-.036 1.142-.013.05-.038.1-.074.125a.354.354 0 01-.111.025c-.014 0-.025 0-.049-.012l-9.1-2.882a.193.193 0 01-.078-.065.194.194 0 01-.033-.096l-.038-.683a.197.197 0 01.005-.087.197.197 0 01.044-.075c.05-.024.1-.037.149-.024l3.333.87-3.469-1.193zm-1.939 4.769a.197.197 0 01-.111.036h-.037l-1.544-.385c-.049-.012-.086-.036-.124-.098-.011-.038-.023-.087-.011-.125.679-2.061.531-4.582.099-6.16a.17.17 0 01.05-.185.168.168 0 01.172-.025l1.162.472a.154.154 0 01.109.149l.298 6.172c.011.074-.014.123-.063.149zm.605-14.928c-.086.013-.185-.036-.198-.149-.012-.024 0-.06.013-.086-.013-.012-.025-.025-.025-.037-.023-.05-.013-.112.012-.162a.128.128 0 01.076-.062 2.742 2.742 0 011.443-.174c.395 0 .79.087 1.185.236.42.199.817.485 1.112.857.161.187.296.41.407.596.049.124.098.224.148.323.038.112.062.2.111.286.345.846.423 1.777.224 2.67a4.08 4.08 0 01-.507 1.242 3.842 3.842 0 01-.888.943c-.014.013-.027.025-.05.025-.088.024-.161.013-.199-.062-.037-.038-.037-.099-.024-.161a.174.174 0 01-.026-.102.175.175 0 01.039-.098c.085-.098.161-.198.246-.285.086-.198.174-.397.234-.596.138-.347.21-.707.235-1.08.075-.708-.035-1.428-.272-2.136-.062-.162-.122-.348-.197-.51-.085-.173-.161-.297-.246-.446-.197-.274-.456-.485-.754-.683a2.881 2.881 0 00-2.099-.349zm-7.606 14.058a2.198 2.198 0 01-.308.26 1.008 1.008 0 01-.42.187c-.013.025-.024.025-.038.025-.024 0-.036 0-.049-.025a360.092 360.092 0 00-9.334-2.099 87.1 87.1 0 00-2.346-.484c-.395-.074-.79-.161-1.172-.21-.372-.063-.755-.026-1.15.036-1.544.249-3.011.919-4.333 1.763-.074.05-.198.025-.247-.049a.25.25 0 010-.186c-.038-.074-.024-.174.049-.223 2.741-1.801 4.531-2.894 6.569-2.509 1.926.372 10.927 2.31 11.52 2.447.605.16 1.037.086 1.296-.187.013-.087.038-.198.038-.298-1.852-.435-3.718-.794-5.582-1.192l-2.926-.596-2.913-.621c-.976-.211-1.952-.435-2.878-.472a4.794 4.794 0 00-1.344.15c-.458.123-.915.297-1.384.446-1.852.695-3.704 1.428-5.556 2.136h-.014c-.086.05-.184-.013-.221-.1a.138.138 0 01-.008-.063.145.145 0 01.019-.061c0-.012-.011-.012-.011-.025a.18.18 0 01.074-.236c.543-.248 1.419-.645 2.371-1.08a56.49 56.49 0 013.048-1.366c.471-.198.927-.36 1.458-.51a4.65 4.65 0 011.593-.173c.272.013.532.038.791.062.778.087 1.518.274 2.233.434l2.927.672.915.222 2 .498c.147.037.321.074.48.124 1.827.41 3.644.844 4.89 1.192v-.112c-.024-.256-.04-.513-.049-.77 0-.26.012-.51.012-.72-.012-.223-.012-.298-.098-.472-.1-.16-.285-.36-.433-.572a.174.174 0 01-.025-.185c-.062-.05-.073-.149-.024-.224.062-.074.16-.1.235-.038.21.125.371.262.506.36.073.051.159.1.259.174.112.088.234.224.322.398.067.159.113.326.135.496.036.274.024.535.024.771l.025.757c0 .249-.013.51-.036.796-.038.285-.098.583-.298.88-.049.063-.098.137-.158.2l-.15.123-.284.25zm-7.531-5.153c-.038-.1-.075-.2-.124-.273h-.013l-.073-.025-.099-.038a15.959 15.959 0 00-1.692-.434l-1.754-.422c-.529-.113-1.036-.249-1.568-.373 0 .013-.011.013-.024.024a1.67 1.67 0 00-.172.287 2.65 2.65 0 00-.173.745v.011c-.013.1-.1.175-.185.162h-.014a.201.201 0 01-.16-.149 2.757 2.757 0 01-.061-.918c.011-.15.037-.323.11-.485a1.31 1.31 0 01.321-.51.39.39 0 01.309-.086l.049.013c.593.087 1.186.211 1.778.347.593.136 1.186.26 1.78.423a23.37 23.37 0 011.591.496c.05.025.113.037.174.062.087.038.16.075.247.124.036.025.036.012.099.05.036.037.073.062.111.1.049.049.049.062.074.1l.036.073c.112.174.148.373.174.559.025.373-.075.795-.371 1.043a.243.243 0 01-.111.037.2.2 0 01-.137-.062c-.035-.037-.049-.087-.035-.149v-.012a.151.151 0 010-.175c0-.011.011-.024.011-.036a1.188 1.188 0 00-.098-.51zm-16.471-5.898c-.026-.063-.026-.113 0-.162v-.013c-.049-.074-.026-.198.06-.236.088-.05.186-.025.235.062l.223.373c.135.26.308.521.469.808.259.384.519.745.802 1.079.248.324.544.646.815.796.025.011.05.024.087.037h.049c.062-.013.088-.013.21-.037.173-.063.383-.125.58-.187.792-.273 1.618-.572 2.421-.857.814-.286 1.63-.584 2.457-.844.308-.1.629-.187.938-.298.112-.025.21-.05.309-.087.42-.112.84-.249 1.321-.311l.172-.025c.075-.012.149-.012.235-.012.148 0 .285.025.383.037.234.05.432.1.654.149.42.1.84.211 1.261.324.74.185 1.456.396 2.171.607.42.1.828.2 1.26.323.013-.012.025-.012.049-.012.014 0 .025 0 .224.05.184.049.555.137 1.271.347l.098.037c.544.15 1.074.274 1.57.41a20.95 20.95 0 011.727.435 18.79 18.79 0 011.606.521c.073.038.172.075.247.1.506.149.939.31 1.297.434a.186.186 0 01.111.224.197.197 0 01-.049.038.136.136 0 01.027.08c0 .03-.01.057-.027.08-.039.063-.111.087-.187.076a31.133 31.133 0 01-2.618-.61c.027.746.027 1.727-.148 1.938-.035.062-.123.1-.259.1a3.427 3.427 0 01-.42-.038c-.79-.136-4.58-1.13-5.172-1.54a.218.218 0 01-.076-.075c-.072-.198.199-1.352.42-2.035-1.109-.224-2.222-.447-3.308-.671l-1.272-.26a8.842 8.842 0 00-.617-.1.565.565 0 00-.234-.025l-.112.013-.136.024c-.187.035-.373.08-.555.136.011.225.049.485.061.672.074.732.087.905-.012 1.005-.123.136-.359.1-.877.038a6.315 6.315 0 00-.838-.075c-.298 0-1.125.286-1.817.509-.863.298-1.259.41-1.457.41-.086 0-.121-.012-.16-.037-.136-.075-.395-.398-.63-.683-.345.099-.703.21-1.074.31a7.33 7.33 0 01-.655.162 2.084 2.084 0 01-.432.036 1.217 1.217 0 01-.467-.16c-.469-.323-.717-.696-.976-1.081a21.869 21.869 0 01-1.235-2.31zm.888-3.13c.148-.435.309-.832.481-1.218a.552.552 0 00.049-.136c.224-.496.458-.98.878-1.44a.696.696 0 01.099-.087c.036-.025.061-.063.086-.087.084-.067.175-.126.271-.174.926-.51 3.433-1.503 4.619-1.379.407.05 1.789.311 4.259.808l.308.05c.088.025.161.05.249.061 3.914.807 9.372 1.988 11.284 2.46a.175.175 0 01.123.198c-.024.1-.085.149-.172.149-.012 0-.038-.012-.049-.012-.186-.038-.42-.113-.68-.174v.025c.123 5.787-.198 5.886-.383 5.936h-.074c-.691 0-5.124-1.552-5.173-1.565-.086-.063-.123-.162-.21-.497-.271-.894-.877-2.968-2.717-3.154-1.802-.199-2.654 1.329-3.123 2.16-.16.299-.234.423-.346.485-.012.012-.667.223-1.531.51-1.765.545-4.432 1.365-4.741 1.278a.204.204 0 01-.149-.124c-.247-.496.384-3.874.63-4.546.049-.149.124-.31.186-.496.594-1.688.938-2.52 1.321-2.595.198-.038.753-.15 1.494-.223l-.209-.038c-.273-.037-.47-.062-.717-.037a7.456 7.456 0 00-1.482.335c-.495.15-.975.323-1.456.521-.248.088-.469.187-.705.287-.234.124-.469.223-.605.36-.321.322-.592.77-.827 1.23-.259.458-.458.943-.666 1.414a.17.17 0 01-.09.1.16.16 0 01-.133 0c-.087-.025-.124-.124-.099-.211 0-.013.012-.025.012-.025-.023-.05-.023-.087-.012-.149zm-18.088 4.458c-1.606 1.043-3.26 2.073-3.458 2.161a.096.096 0 01-.061.025.178.178 0 01-.123-.05c-.124-.1-.137-.112 1.258-4.732.433-1.415.827-2.731.865-2.918.11-.534 4.111-4.147 5.037-4.359.186-.049.284.025.334.087.456.61-.531 7.377-.555 7.426-.088.224-1.68 1.317-3.297 2.36zm-5.088 2.98c-.136.41-.764.794-1.321 1.155-.099.062-.209.124-.283.173-.037.026-.062.026-.1.026a.178.178 0 01-.123-.05c-.062-.05-.062-.137-.025-.223.47-.659 1.062-4.769 1.259-6.88.21-2.099.47-4.123 1.001-4.706.456-.509 1.358-1.143 4.236-1.429.085-.012.159.05.172.137a.18.18 0 01-.024.123.179.179 0 01-.099.076c-2.629.658-3.297 1.303-3.605 1.85-.235.385-.396 1.64-.568 3.154.568-2.049.851-2.831 1.049-3.005.136-.124.58-.422 1.098-.77.483-.335 1.037-.72 1.371-.956.074-.074.172-.062.235.025.062.062.049.162-.025.224-1.186 1.13-2.037 2.483-2.135 2.682-.063.174-.667 2.645-1.15 4.62-.481 1.924-.889 3.576-.963 3.774zm-8.321 11.847c.79-.497 1.505-.92 2.26-1.378.653-.385 1.333-.783 2.073-1.243.025-.943.049-1.887.088-2.818v-.187a.16.16 0 01.099-.149c.023-.012.036-.012.06-.012.1 0 .185.074.185.161v.174c.014.956.014 1.9.014 2.857l-.014 2.856-.035 2.856a179.69 179.69 0 00-.088 2.843c0 .025-.011.05-.025.088 4-1.516 5.964-2.261 6.188-2.261.01 0 .035.012.049.012.134.038.171.212.184.261.098.348.098 1.515-.085 1.701-.099.112-2.348.585-4.656 1.032-2.322.458-4.742.894-5.211.955l-.074.013h-.025c-.075 0-.148-.05-.161-.125a.17.17 0 01.009-.125.168.168 0 01.091-.086c.296-.087 1.395-.52 2.79-1.043.236-.099.469-.185.705-.26a.171.171 0 01-.125-.162v-.012c-.012-.956-.012-1.9-.012-2.844l.012-2.843.037-2.298c-.642.398-1.284.795-1.913 1.18-.754.435-1.482.894-2.236 1.316-.085.05-.197.013-.234-.062-.037-.05-.025-.112 0-.174a.177.177 0 01-.023-.059.167.167 0 01.027-.12.172.172 0 01.046-.044zm13.26 7.45c1.766-3.315 4.631-5.078 6.964-4.309 1.197.398 4.087 2 4.914 8.022.014.1-.036.174-.111.199-.099.024-.184-.025-.21-.099-.753-1.9-2.333-4.321-4.383-4.955-1.087-.335-2.221-.087-3.357.708-3.854 2.744-4.532 7.413-4.668 11.176-.012.1-.075.162-.161.173h-.025c-.074 0-.135-.049-.161-.124-.839-3.216-.321-7.934 1.198-10.791zm10.051-5.923l.816-1.366.37-1.44c.011-.1.098-.15.184-.137l3.607.658a.184.184 0 01.134.1l.52 1.005 2.703 1.217a.18.18 0 01.07.05c.02.02.034.047.042.075l.21 1.13c0 .062-.038.124-.088.173-.024.025-.06.025-.098.025-.024 0-.049 0-.074-.012l-4.433-2.372h-2.408l-1.296 1.105a.148.148 0 01-.111.047.148.148 0 01-.11-.047c-.063-.062-.088-.15-.038-.211zm9.705 2.633c.049 0 .112.024.136.087a.118.118 0 01.012.161l-.79 1.987c-.013.05-.062.087-.099.1h-.062c-.037 0-.074 0-.098-.026l-3.693-2.594-2.481 1.166a.181.181 0 01-.21-.037c-.049-.062-.049-.148-.012-.224l1.975-2.694c.062-.088.149-.1.222-.062l3.519 2.136h1.581zm-9.765 14.888a1.203 1.203 0 01-.706.236c-.456 0-.852-.285-1.173-.51-.247-.173-.482-.334-.666-.334-.47 0-.642-.397-.766-.683-.074-.186-.149-.31-.222-.31-.062 0-.222 0-.285-.125-.024-.05-.024-.087-.024-.124 0-.074.05-.161.099-.26.099-.161.248-.41.21-.77-.013-.063-.023-.274.124-.373.172-.112.371.025.631.186.209.149.492.323.666.298.023-.012.061-.025.11-.099.074-.137.172-.298.259-.484.358-.683.828-1.54 1.643-1.54h.11c.42.037.791.534 1.001 1.291.308 1.192.111 2.844-1.011 3.601zm-.594 3.378c-.878 1.528-2.174 2.52-3.494 2.633-.075 0-.161.012-.261.012-.913 0-1.765-.447-2.481-1.29-2.802-3.341-1.778-9.526-.888-11.848.937-2.422 2.877-4.768 5.074-4.508 1.913.224 3.149 2.075 3.753 5.65a.176.176 0 01-.023.113.17.17 0 01-.088.073.167.167 0 01-.135-.024.108.108 0 01-.046-.028.12.12 0 01-.029-.046c-.63-1.615-1.406-2.496-2.271-2.509-.791-.025-1.581.67-2.112 1.826-.605 1.34-.864 3.091-.84 4.73.014 1.515.272 2.956.692 3.875.446.932.902 1.453 1.421 1.59.42.111.912-.05 1.48-.473.063-.061.149-.036.224.013a.171.171 0 01.05.101.17.17 0 01-.026.11zm59.81-24.252l3 1.204a.2.2 0 01.123.15l.049 1.018.568-.844c-.024.012-.036.012-.061.012-.024 0-.038-.012-.062-.012a.222.222 0 01-.098-.137l-.148-.807c-.013-.063 0-.125.06-.161l.682-.658-4.459-1.466c-.049-.025-.1-.062-.111-.111l-.285-1.019a.138.138 0 01.05-.162c.036-.049.111-.062.185-.037l2.025.82c0-.174 0-.36-.013-.559 0 .012-.01.037-.024.05-.025.037-.074.049-.111.049-.025 0-.036 0-.062-.012l-1.296-.522c-.061-.025-.111-.087-.099-.16 0 0 0-.163.012-.411.038-.41.149-1.204.445-1.689.321-.571 1.372-1.626 1.802-2.048l-2.704-1.192.519 1.837c.013.062-.013.149-.062.187a.185.185 0 01-.198.012l-1.456-.82-.013.671 1.014.745.505-.05c.049 0 .098.013.136.05a.157.157 0 01.05.124l-.173 2.161-.026.236c0 .05-.037.087-.072.111a.093.093 0 01-.111.05l-.556-.061a.203.203 0 01-.137-.113l-2.865-7.227a.164.164 0 01-.009-.092.16.16 0 01.046-.081c.038-.05.125-.063.187-.05l.11.037a8.945 8.945 0 00-.271-.608c-.013.036-.026.061-.037.087a.252.252 0 01-.161.074h-.025c-.184-.025-.272-.236-.581-.957-.246-.57-.555-1.278-.876-1.663-.049-.074-.148-.15-.271-.249a2.295 2.295 0 00-.259-.185c-1.606-1.119-5.989-3.279-9.99-4.533-4.777-1.49-12.075-2.57-12.803-2.57h-.026c-.519.012-.949.397-1.257.67-.113.087-.2.174-.273.223.345.087.69.162 1.038.274.406.086.827.186 1.234.31-.112-.397-.224-.72-.273-.92a.23.23 0 01.038-.173.209.209 0 01.172-.037l2.125.522a.163.163 0 01.122.098c.161.398.297.807.458 1.218 1.457.397 3.012.844 4.383 1.242.012 0 .026.012.026.012.085-.05.147-.112.21-.162a3.17 3.17 0 01.554-.533.175.175 0 01.247.024c.025.03.038.07.035.108a.151.151 0 01-.048.104c0 .012 0 .012.013.012.012.03.016.064.011.096a.194.194 0 01-.035.09c-.16.186-.285.373-.419.56a4.851 4.851 0 00-.693 1.613 5.926 5.926 0 00-.073 2.372c.061.348.184.72.359 1.055.085.162.183.324.282.473.111.174.224.31.345.459.249.273.544.496.889.695.137.087.297.161.47.223.209.038.445.075.681.075.096 0 .159.075.159.187a.135.135 0 01-.013.06.14.14 0 01-.036.052c.01.032.013.065.011.098-.011.026-.025.062-.049.088l-.072.037c-.865.199-1.853.012-2.644-.546l-2.223-.534c.556 2.384.853 4.308.804 5.364-.063 1.676-.297 3.117-1.199 5.005l4.804 1.08a.17.17 0 01.134.136l.347 2.124c.012.05-.013.112-.05.15a.178.178 0 01-.122.049h-.038l-2.581-.61a.182.182 0 01-.135-.16c0-.062-.184-1.664-3.001-1.54-.058.109-.12.217-.185.323.335.025.654.099.952.21.259.062.492.175.727.324.592.36 1.001 1.03 1.099 1.726a2.774 2.774 0 01-.469 1.962c-.37.558-.914.943-1.482 1.192-.025.012-.049.012-.074.012-.06 0-.123-.037-.136-.099-.023-.05-.012-.087 0-.137-.012 0-.012 0-.012-.012-.062-.075-.025-.174.049-.224.173-.125.334-.236.469-.36.21-.236.397-.497.519-.77a2.43 2.43 0 00.259-1.428c-.073-.459-.296-.919-.679-1.23-.381-.322-.864-.533-1.432-.658-.038 0-.062-.024-.087-.05-.024 0-.049.014-.086.014-.012 0-.037 0-.049-.013-1.025-.347-2.172-.696-2.421-.732-.098.049-.221-.05-.221-.162 0-.038.024-.087.049-.136l.224-.298c1.603-2.162 2.763-3.714 2.677-6.172-.061-1.962-1.988-8.158-3.136-11.847-.099-.323-.197-.608-.283-.894l-1.668-.372c-1.382-.323-2.789-.559-4.197-.832l-4.224-.783-4.222-.807-2.111-.385c-.333-.062-.73-.124-1.026-.174l-.073-.012-.012.012c-.049.012-.124.05-.197.074-.15.05-.309.113-.469.174-1.026.46-2.089.982-3.101 1.516-.235.111-.469.236-.703.36-.012 0-.038.025-.038.025h-.011c-.014 0-.025.036-.038.05-.037.048-.086.11-.123.186-.112.136-.197.285-.284.434-.186.298-.371.609-.53.919l-1.051 1.887c-.035.075-.148.112-.222.063-.086-.038-.112-.125-.086-.212v-.024c-.026-.038-.026-.087-.013-.137.099-.186.187-.41.286-.646.16-.422.308-.819.479-1.23.138-.334.298-.67.446-1.005.085-.16.172-.336.259-.496.05-.087.111-.174.173-.26.037-.051.049-.076.122-.163.088-.075.137-.1.174-.136a28.864 28.864 0 011.765-1.018c.038-.038.087-.063.124-.087l.939-.498-.223-.422c-.024.026-.074.037-.112.037-1.705-.08-3.409-.192-5.111-.335l-2.556-.174a58.352 58.352 0 00-2.543-.173 21.07 21.07 0 00-1.246-.038 6.068 6.068 0 00-1.187.075c-.185.025-.345.1-.493.16a1.397 1.397 0 00-.408.274c-.21.2-.371.522-.47.907-.197.745-.259 1.602-.332 2.458-.099.858-.186 1.702-.322 2.56-.012.086-.111.16-.197.148-.086-.012-.149-.1-.16-.174a44.086 44.086 0 01-.074-2.57c0-.87 0-1.739.209-2.658.1-.46.309-.956.692-1.354a2.84 2.84 0 01.654-.434c.209-.086.419-.162.618-.21-.816-.038-1.384-.038-1.655.01l-.37.038c-.532.063-1.211.125-2.655.82a1.53 1.53 0 01.333-.037c.211 0 .408.062.618.187h.013c.011.011.036.024.05.049h.01c0 .013 0 .013.013.013v.012h.012a.603.603 0 01.124.199v.025h.004c.002 0 .003.002.005.003l.002.004a.008.008 0 01.001.004c.308.808.297 3.105.285 4.782 0 .583 0 1.105.012 1.378.024.546.172.919.419 1.055.236.15.519.075.691-.024.766-.36 8.447-3.949 13.459-6.197 0 0 .013 0 .013-.013.098-.036.197-.074.272-.111.049-.038.073-.038.085-.05l.247-.111c.088-.037.197.012.223.087.036.098 0 .198-.099.236l-.21.098a.28.28 0 00-.085.026c-.099.061-.187.099-.298.15-3.186 1.476-10.482 5.24-11.901 5.996-.421.224-.952.534-1.471.845-1.519.881-2.073 1.179-2.332 1.179a.24.24 0 01-.187-.074c-.111-.137-.086-.558.198-3.204.16-1.49.347-3.192.37-4.197l.013-.397c.025-.671.036-1.118-.026-1.354a.265.265 0 00-.086-.111c-.444-.25-.752-.25-2.271.72a.245.245 0 01-.087.025c-.074 0-.123-.025-.148-.075a.184.184 0 01-.013-.174 37.47 37.47 0 00-1.765 1.105.13.13 0 01-.086.038.16.16 0 01-.134-.075c-.063-.063-.051-.174.023-.236.098-.087.236-.211.383-.323-4.137.447-5.185 1.254-5.619 2.471-.296.87-.679 3.266-.938 4.844-.161.968-.247 1.44-.284 1.55-.123.336-2.124 4.584-2.235 4.832-.099.21-1.963 1.664-3.839 3.129-.951.745-1.902 1.465-2.666 2.05l.319.434c.753-.572 1.544-1.106 2.334-1.64a39.08 39.08 0 011.11-.695c.508-.372.978-.72 1.434-1.03a.174.174 0 01.234.037c.05.074.05.15-.012.211.049.063.024.161-.037.212-1.334 1.166-2.729 2.26-4.099 3.365-.174.123-.322.26-.495.385l-1.146.905c-.384.311-.766.621-1.125.907l-.124.112-.074.087c-.049.05-.087.124-.136.21a3.24 3.24 0 00-.161.621c-.072.46-.086.97-.16 1.454 0 .112-.086.174-.185.161a.182.182 0 01-.098-.038l-.211.46a.25.25 0 01.113.038c.727.334 2.63 5.96 2.702 6.196a.15.15 0 01-.062.186.164.164 0 01-.21 0c-.741-.57-1.073-.708-1.185-.732l-1.666.471.036.075 1.494-.062c.038 0 .062 0 .1.038l.827.57c.062.05.086.113.074.175-.025.074-.074.123-.136.136l-2.063.36.089.136 1.245.025c.05 0 .112.026.136.05l.421.497c.035.037.061.1.035.161-.011.063-.049.099-.11.125l-1.346.41 1.124.869a.2.2 0 01.048.073.2.2 0 01.014.087c-.013.051-.038.1-.087.125l-1.001.547.482.41a.16.16 0 01.053.065.158.158 0 01.01.083l-.197 3.054a4.76 4.76 0 01.245-.62c1.05-2.707 1.099-3.639.975-3.762-.394-.386-.493-.994-.196-1.44a.924.924 0 01.259-.274c.185-.136.444-.249.678-.372.285-.125.717-.336.741-.46.05-.298-.383-3.34-1.209-6.134-.025-.1.012-.187.1-.212.072-.037.171-.012.21.063.64 1.043 1.382 3.663 1.653 4.83.259 1.168.469 1.453 1.173 1.527.012.013.025.013.037.013.112.013.224.024.345.024.099 0 .161.087.174.174a.176.176 0 01-.161.175c-1.914.223-3.073.832-3.309 1.03-.086.062-.122.26-.062.372.074.124.235.088.383.038l.358-.125c1.247-.459 5.038-1.85 6.692-2.297 2.136-.57 3.481-.757 4.248-.633.062.012.098.05.122.099.026.062.026.124-.011.162l-1.075 1.775 1.124 1.552a.156.156 0 01.035.053c.007.02.011.04.01.062a.161.161 0 01-.017.06.147.147 0 01-.04.05l-2.025 1.937-.334 1.328 1.161.72c.075.038.099.1.099.174l-.185 1.205c0 .037-.012.062-.038.098l-1.506 1.888v.907l1.309.559a.156.156 0 01.111.149l.086 2.16a.227.227 0 01-.037.124l-.975 1.106.21 1.54 1.408-.335c.049-.013.087-.013.123.011a.161.161 0 01.057.046c.015.02.025.043.03.067l.506 2.123.308.384 1.605 2 3.915 4.83 1.346.336c.035.01.066.032.086.062l1.469 1.453.926-1.726a.153.153 0 01.039-.056.14.14 0 01.059-.031l.977-.385a.18.18 0 01.209.074l.667 1.094.716-.236 1.136-4.657c.014-.062.063-.1.136-.136.074-.013.137.011.173.087l1.42 1.886a.176.176 0 01.024.087l.211 1.565 1.456-1.639-.506-3.403-1.024-2.744c-.013-.062 0-.149.049-.198a.186.186 0 01.21-.013l2.481 1.428a.11.11 0 01.075.075l1.369 3.254.791-2.398-.999-2.706-2.026-1.664c-.062-.05-.086-.125-.062-.187.025-.062.101-.124.173-.124l3.471.05c.073 0 .122.037.147.087l1.791 2.892.123-.607-.457-1.987a.215.215 0 01.025-.149l.791-1.031-2.249-3.937-3.123-3.402c-.05-.037-.062-.087-.05-.15 0-.049.05-.098.099-.123l2.099-1.118c.075-.037.148-.024.197.038l3.569 4.147c.013.012.026.025.026.037l1.777 3.763.224-.881-.212-2.137-5.692-8.53-2.309-.212a.2.2 0 01-.148-.1c-.023-.061-.023-.124.012-.173l1.767-2.582a.169.169 0 01.045-.058.151.151 0 01.065-.03.242.242 0 01.135.037l1.89 1.466c.012.013.026.037.037.049l1.717 3.105 2.728 2.868 1.297 1.913 1.876-4.57-.765-3.067-.42 3.017-.74 2.41a.172.172 0 01-.059.076.177.177 0 01-.089.035c-.075.013-.137-.025-.174-.087l-2.024-3.576c0-.012 0-.025-.012-.038l-1.458-4.62c-.025-.073 0-.148.074-.198a.152.152 0 01.199.013l1.431 1.255c.025.024.036.06.049.098l.383 1.652.457.372.925-1.937-.036-2.582-.519-.746-.345 2.087a.231.231 0 01-.111.149c-.05.013-.123.013-.173-.038l-2.878-2.322a.177.177 0 01-.024-.248l.605-.782a.13.13 0 01.048-.046.127.127 0 01.063-.016c.037-.013.086 0 .125.024l.739.584.137-1.95-1.037-.844-1.063 1.216a.186.186 0 01-.235.026l-2.061-1.639a.236.236 0 01-.062-.149.175.175 0 01.074-.137l1.05-.72-4.939-1.863-4.31.074 3.964.15c.012 0 .037 0 .05.012l3.284 1.043c.049.012.087.05.111.087l.335.794a.2.2 0 01.01.097.197.197 0 01-.036.09.159.159 0 01-.161.062l-5.458-1.292-.629 1.007a.258.258 0 01-.087.074l-2.062.857c-.024.012-.037.012-.06.012a.145.145 0 01-.101-.037c-.049-.038-.073-.087-.06-.15l.37-2.681c0-.05.024-.087.073-.125l-1.641.025-1.384.571 1.112-.111.431-.311a.216.216 0 01.174 0l.271.05a.185.185 0 01.065.057c.018.023.029.05.034.08.002.05-.015.1-.049.137l-2.297 2.358c-.035.038-.074.062-.124.062a.232.232 0 01-.062-.024c-.059-.025-.109-.087-.109-.15l.073-1.912c0-.024.012-.036.012-.05l-1.024.435-.334.224.446 1.092a.17.17 0 01-.075.2l-1.567 1.254-.667 1.03a.181.181 0 01-.15.074h-.06a.187.187 0 01-.081-.07.19.19 0 01-.031-.103l.086-1.602c0-.05.026-.1.086-.136l1.483-.87.085-.546-2.494 1.788.05 1.39a.156.156 0 01-.022.087.158.158 0 01-.064.062l-2.112 1.255a.13.13 0 01-.171-.012c-.05-.038-.088-.112-.063-.174.765-3.602 1.407-6.171 2.703-10.257.766-2.435 1.52-4.433 2.359-5.836-.358.236-.727.459-1.098.694-2.47 1.566-5.001 3.08-7.668 4.335.012.434.012 1.143-.075 1.403-.123.36-.876.783-1.234.783-.024 0-.049 0-.074-.013-.185-.05-.346-.323-.495-.845a3.303 3.303 0 01-.061-.26l-.629.373c-.197.111-.384.223-.567.322-.372.212-.742.423-1.124.633l-1.704.931a76.99 76.99 0 01-1.73.883c-.087.036-.198 0-.235-.075-.024-.05-.024-.112 0-.15v-.011c-.049-.088-.012-.187.063-.237l.481-.26a490.004 490.004 0 005.506-3.055c.075-.062.259-.186.804-.472l.036-.012.025-.013c.493-.285.975-.57 1.483-.857.85-.558 1.715-1.117 2.555-1.677 1.369-.868 2.753-1.7 4.137-2.544a384.725 384.725 0 016-3.577c1.011-.646 1.839-1.18 2.383-1.515.074-.05.172-.037.222.05.049.049.049.124 0 .186.049.074.025.174-.05.211a75.582 75.582 0 01-3.418 2.434c.827.038 1.516.547 2.257 1.552.174.236.334.485.482.757.889 1.552 2.124 3.664 8.373 1.95.072-.024.147.013.183.1.038.074.013.16-.06.211-1.495.993-3.125 2.235-3.259 2.583.431.583 6.888 3.03 7.468 2.993.051-.026.21-.088.433-.187.011 0 .025-.013.037-.013 1.086-.434 3.644-1.477 5.297-1.378 1.742.124 11.928 2.397 12.237 2.633.233.186.332 1.39.22 1.875-.011.1-.061.36-.283.422-.235.05-1.519-.285-5.296-1.39a38.218 38.218 0 00-1.323-.385c-.775-.224-1.764-.1-2.616.334 0 .013.011.062.087.15.072.099.172.148.21.148.209-.185.925-.583 1.283-.285.346.298.53 2.818-.11 5.19-.063.088-.049.137.011.175.062.037.173.024.284-.112.358-.46 1.271-.348 2.087-.187.346.05 3.766.783 10.174 2.173l.172.038c.223.05.457.099.68.149.026 0 .049.012.075.012l5.148 1.118.172.038 14.051 2.892 7.162 1.465.421-.26a.213.213 0 01-.026-.15c.012-.024.012-.037.012-.048a.212.212 0 01-.012-.125c.202-.674.319-1.37.346-2.074-.012-.112-.012-.186-.026-.223-.418-.249-4.852-1.466-5.42-1.577a.49.49 0 01-.358-.249.81.81 0 01-.025-.298c-.036-.223.075-.546.347-1.018.012-.422.075-.882.174-1.217-.039.037-.099.087-.138.124a.197.197 0 01-.111.038c-.024 0-.049-.013-.086-.025l-.617-.335a.154.154 0 01-.065-.043.15.15 0 01-.034-.069.2.2 0 01-.003-.077.204.204 0 01.028-.072c.888-1.254 1.555-2.882.419-6.345-.727-2.162-2.42-5.912-3.654-8.656-.629-1.39-1.125-2.471-1.284-2.893-.012-.063 0-.137.061-.174a.153.153 0 01.173-.038l.655.274.235.1c.036.011.061.036.085.073 1.519 2.931 4.606 9.786 5.235 12.108.385 1.44.679 3.042.148 4.458a.58.58 0 01.272-.074c.371 0 2.581.607 3.483 1.142 0-.186 0-.386.011-.584a.21.21 0 01-.086.025c-.012 0-.037-.012-.048-.012l-1.471-.447a.196.196 0 01-.111-.174v-1.242l-1.431-.236c-.074-.012-.137-.074-.137-.15l-.062-.782c0-.029.006-.058.02-.084a.172.172 0 01.056-.065c.049-.036.097-.036.16-.011z" fill="#fff"/><path d="M304.532 57.423l.592-.038-.704-.471.112.509zm-14.558-2.857l-.148-1.39-.778 3.34 1.025-.82a.444.444 0 01.125-.025h.023l6.409 1.056 1.148-.832-7.669-1.192a.16.16 0 01-.135-.137zm-34.51 3.725c-1.111.138-2.063.1-3.31-.459-.22 2.024-1.185 3.601-2.889 4.632 1.594.298 7.916-1.564 8.385-1.776a.195.195 0 00.049-.037c.087-.075.209-.36-.1-1.341-.172-.584-1.073-1.13-2.135-1.019zm-10.756-8.158c-.259.136-1.06 2.371-1.395 4.308-.321 1.901-.419 4.521-.233 4.806.122-.037.457-.596.654-.956l-.074-.037c-.333-.223-.333-1.006 0-3.117.098-.596.481-2.558 1.173-2.707a.3.3 0 01.185 0c-.037-1.986-.223-2.26-.31-2.297zm-2.653 11.536c.025.1-.012.187-.112.223h-.061a.11.11 0 01-.098-.05c.011.05.024.112.049.175a.767.767 0 00.147.235l1.372-.385.296-.57-1.791-1.167c.013.645.074 1.179.198 1.54z" fill="#fff"/><path d="M329.473 66.425l-.16-1.614a.22.22 0 00-.026-.086l-.593-1.019.569.372.568 1.056.037 1.49-.395-.2zm-.889-12.827l.802-.05 2.161 1.453.988 1.453.05.856-1.903-2.271c-.011-.026-.024-.038-.036-.05l-2.062-1.391zm1.123-4.172l1.654 1.539.433 1.33-1.309-1.665a.132.132 0 00-.049-.037l-2.123-1.403 1.394.236zm-9.655 5.177l-4.483-.745-7.74-1.29-7.026-1.168 7.618-8.42 3.74.92-4.296 7.351a.189.189 0 00.037.236c.038.025.062.025.111.025a.18.18 0 00.124-.05l6.494-7.003 5.051 1.254-4.087 6.829a.174.174 0 00.049.236c.025.026.062.026.086.026a.239.239 0 00.149-.05l6.185-6.582 4.445 1.167-6.457 7.264zm-8.928 3.267l1.877.421-.135.684-1.654-.075-.088-1.03zm11.126 7.798c-1.976 1.528-4.421 1.775-6.705.707-2.444-1.154-4.209-3.613-4.383-6.034l1.717.099c.974 2.16 2.506 3.75 4.222 4.346 1.335.46 2.729.323 4.124-.422 2.124-1.105 2.914-2.757 3.198-3.95.37-1.576.074-3.277-.815-4.519-.049-.062-.012-.1.013-.137.049-.036.172-.074.296.037.568.51 1.333 2.298 1.247 4.322-.05 1.54-.593 3.775-2.914 5.55zm-17.718-8.245l-.111-.51.703.472-.592.038zm27.422 5.389l-.518-.149-.197-1.577c0-.038-.013-.062-.026-.087l-1.11-1.552c-.025-.013-.025-.013-.038-.025l-.358-.324.914.374 1.222 1.7.025.435.086 1.205zm-35.324-6.085l-6.409-1.056h-.024a.422.422 0 00-.124.026l-1.025.819.778-3.34.148 1.39a.166.166 0 00.045.091.162.162 0 00.091.046l7.668 1.192-1.148.832zm-46.031 7.376c5.951.509 7.656.82 8.05 1.006.321.15.679.497 1.013.92 1.001 1.29 1.927 3.34 1.939 3.351 0 .025.011.038.024.05l1.457 1.665-12.483-6.992zm-1.334-1.64c1.705-1.03 2.667-2.607 2.89-4.63 1.246.558 2.197.596 3.31.458 1.061-.111 1.962.436 2.135 1.019.308.98.184 1.267.098 1.34a.16.16 0 01-.049.038c-.469.212-6.791 2.074-8.384 1.776zm-4.432-10.033c-.692.15-1.074 2.111-1.173 2.707-.334 2.111-.334 2.894 0 3.118l.075.036c-.199.36-.532.92-.655.957-.186-.286-.087-2.906.234-4.805.334-1.938 1.137-4.173 1.396-4.31.086.038.271.31.308 2.297a.309.309 0 00-.185 0zm95.53 21.296c-.346-.819-1.532-1.577-3.173-2.035-.383-.1-.778-.2-1.174-.298-1.444-.36-2.926-.72-4.445-1.777.248-.26.495-.545.741-.832a25.32 25.32 0 001.915-2.669c1.889-3.03 1.667-4.72 1.654-4.781 0-.05-.024-.087-.075-.112a.165.165 0 00-.134-.025l-1.173.25 1.814-2.349a.139.139 0 00.037-.136l-.383-2.93c-.013-.063-.049-.125-.099-.15-.062-.011-.122-.011-.172.025l-.803.571.765-2.533a.153.153 0 000-.111l-.949-2.298c-.013-.049-.051-.074-.112-.1a.214.214 0 00-.149.026l-.493.335.037-2.086c0-.05-.013-.087-.05-.112l-.542-.645.604.26c.062.013.112.013.148-.013l1.803-.843c.061-.05.099-.112.099-.187-.012-.074-.062-.124-.136-.162l-7.162-1.464-14.05-2.894-.174-.037-5.148-1.118c-.025 0-.049-.012-.074-.012l-.679-.149-.174-.038c-6.407-1.39-9.826-2.123-10.173-2.172-.815-.162-1.729-.274-2.087.186-.111.136-.222.149-.284.111-.06-.037-.074-.086-.011-.173.641-2.373.456-4.893.109-5.191-.357-.298-1.073.1-1.283.285-.037 0-.136-.05-.21-.149-.075-.087-.086-.136-.086-.149.853-.434 1.84-.558 2.617-.334.235.062.716.198 1.323.385 3.776 1.105 5.061 1.44 5.295 1.39.223-.062.272-.323.285-.422.111-.484.011-1.689-.223-1.875-.309-.236-10.495-2.509-12.236-2.632-1.654-.1-4.211.943-5.297 1.377-.013 0-.024.013-.037.013-.223.1-.383.16-.432.187-.581.036-7.038-2.41-7.469-2.993.134-.348 1.764-1.59 3.259-2.583.073-.05.098-.137.062-.211-.038-.087-.112-.125-.185-.1-6.248 1.714-7.484-.398-8.373-1.949a6.505 6.505 0 00-.481-.758c-.74-1.005-1.432-1.514-2.258-1.552a75.582 75.582 0 003.418-2.434c.075-.037.099-.137.05-.21.049-.063.049-.138 0-.187-.05-.087-.148-.1-.223-.05-.542.335-1.37.87-2.382 1.515a393.585 393.585 0 00-6.001 3.576c-1.383.845-2.766 1.677-4.136 2.546-.84.56-1.705 1.118-2.556 1.676-.507.286-.988.572-1.482.857l-.024.013-.038.012c-.543.286-.728.41-.802.472a504.598 504.598 0 01-5.507 3.054l-.482.262c-.073.05-.111.149-.062.236v.012c-.024.037-.024.1 0 .149.038.075.148.111.235.075a76.99 76.99 0 001.73-.883l1.703-.93c.383-.211.753-.422 1.125-.634.183-.1.369-.21.568-.322l.628-.373c.013.075.038.173.062.26.148.522.309.795.493.845a.16.16 0 00.075.013c.358 0 1.11-.423 1.234-.783.086-.26.086-.97.075-1.403 2.667-1.255 5.198-2.77 7.668-4.335.37-.235.74-.458 1.098-.694-.839 1.403-1.592 3.402-2.358 5.836-1.297 4.086-1.939 6.656-2.704 10.257-.025.063.012.136.062.174a.13.13 0 00.172.012l2.112-1.253a.165.165 0 00.086-.149l-.05-1.392 2.495-1.788-.087.547-1.481.869c-.062.036-.087.087-.087.136l-.086 1.602c0 .075.049.149.111.175h.062a.178.178 0 00.148-.075l.667-1.03 1.568-1.255c.075-.05.098-.124.075-.2l-.446-1.092.334-.223 1.024-.435c0 .013-.012.025-.012.05L268.28 38c0 .062.05.124.112.149a.19.19 0 00.06.024c.051 0 .088-.024.124-.06l2.297-2.36a.185.185 0 00.049-.137.193.193 0 00-.033-.08.196.196 0 00-.066-.057l-.271-.049a.205.205 0 00-.173 0l-.432.31-1.111.111 1.383-.57 1.641-.026c-.049.038-.073.075-.073.125l-.371 2.682c-.012.062.013.111.062.149a.142.142 0 00.099.037c.024 0 .037 0 .062-.012l2.061-.857c.037-.025.075-.05.086-.074l.63-1.007 5.458 1.292a.159.159 0 00.161-.062.198.198 0 00.025-.187l-.334-.794a.2.2 0 00-.111-.087l-3.284-1.043c-.013-.013-.037-.013-.05-.013l-3.963-.149 4.309-.074 4.939 1.862-1.05.72a.179.179 0 00-.074.138.242.242 0 00.062.15l2.062 1.638a.185.185 0 00.234-.026l1.064-1.216 1.035.845-.135 1.95-.741-.585c-.038-.024-.087-.037-.124-.024a.127.127 0 00-.063.016.13.13 0 00-.048.046l-.605.782a.16.16 0 00-.032.061.159.159 0 00-.006.069.169.169 0 00.02.065c.011.02.025.038.043.053l2.876 2.322c.05.05.124.05.174.038a.233.233 0 00.072-.063.23.23 0 00.039-.086l.345-2.087.519.745.037 2.583-.926 1.937-.457-.372-.383-1.652c-.012-.036-.024-.074-.049-.098l-1.432-1.255a.15.15 0 00-.096-.044.147.147 0 00-.101.031c-.075.05-.1.125-.075.2l1.457 4.62c.013.011.013.024.013.036l2.024 3.576c.037.062.099.1.173.087a.18.18 0 00.15-.112l.739-2.408.42-3.018.765 3.067-1.876 4.57-1.296-1.913-2.729-2.868-1.716-3.104c-.013-.013-.026-.037-.037-.05l-1.889-1.466a.256.256 0 00-.137-.036.156.156 0 00-.111.087l-1.766 2.582c-.036.05-.036.112-.012.174.026.05.075.087.149.1l2.308.21 5.693 8.532.211 2.136-.224.88-1.778-3.761c0-.013-.012-.026-.025-.038l-3.567-4.147c-.051-.063-.124-.075-.199-.038l-2.099 1.118c-.049.025-.099.074-.099.125-.011.06 0 .111.05.149l3.124 3.401 2.247 3.937-.79 1.031c-.025.05-.036.099-.025.15l.458 1.986-.124.608-1.791-2.893c-.024-.05-.073-.087-.148-.087l-3.47-.05c-.073 0-.148.062-.172.124-.025.062 0 .136.061.187l2.026 1.663 1 2.707-.79 2.398-1.371-3.254a.11.11 0 00-.075-.075l-2.481-1.428a.19.19 0 00-.21.013c-.049.049-.062.136-.049.198l1.024 2.745.506 3.402-1.456 1.64-.211-1.566a.18.18 0 00-.024-.087l-1.42-1.886c-.037-.076-.099-.1-.173-.087-.072.036-.123.074-.135.136l-1.136 4.657-.717.236-.666-1.093a.182.182 0 00-.21-.075l-.975.385a.143.143 0 00-.061.03.14.14 0 00-.038.057l-.927 1.726-1.469-1.453a.142.142 0 00-.086-.062L266.243 72l-3.914-4.83-1.606-1.998-.308-.386-.506-2.123a.162.162 0 00-.086-.113c-.037-.024-.075-.024-.124-.011l-1.408.335-.21-1.54.976-1.106a.234.234 0 00.036-.123l-.086-2.161a.156.156 0 00-.111-.15l-1.309-.558v-.907l1.506-1.886c.027-.038.038-.063.038-.1l.185-1.205c0-.074-.024-.136-.099-.174l-1.161-.72.334-1.328 2.025-1.938a.147.147 0 00.04-.048.145.145 0 00.007-.123.156.156 0 00-.035-.053l-1.124-1.55 1.075-1.777c.037-.038.037-.1.013-.161-.026-.05-.062-.088-.124-.1-.765-.124-2.112.063-4.248.634-1.654.447-5.445 1.837-6.692 2.297l-.358.123c-.148.05-.309.087-.383-.036-.061-.112-.024-.31.062-.373.235-.198 1.396-.807 3.309-1.03.099-.013.161-.087.161-.174-.013-.088-.075-.175-.173-.175-.123 0-.233-.011-.346-.024-.012 0-.025 0-.036-.012-.705-.075-.915-.36-1.174-1.528-.272-1.167-1.013-3.787-1.654-4.83-.038-.075-.136-.1-.21-.063-.087.025-.124.112-.1.212.828 2.793 1.26 5.836 1.211 6.134-.025.124-.457.335-.74.46-.236.124-.495.236-.681.372a.93.93 0 00-.259.273c-.296.447-.197 1.056.199 1.441.122.124.073 1.055-.977 3.762a4.903 4.903 0 00-.246.622l.198-3.056a.158.158 0 00-.01-.083.165.165 0 00-.053-.066l-.481-.41 1.001-.546c.049-.025.073-.074.086-.125a.217.217 0 00-.062-.16l-1.123-.87 1.345-.41c.062-.024.099-.061.112-.123a.15.15 0 00-.038-.162l-.42-.497a.223.223 0 00-.135-.049l-1.247-.026-.086-.136 2.061-.36c.062-.012.111-.062.135-.136.013-.063-.011-.125-.073-.174l-.827-.571c-.038-.038-.062-.038-.099-.038l-1.494.062-.037-.075 1.667-.471c.111.024.445.161 1.185.733a.168.168 0 00.21 0 .154.154 0 00.061-.187c-.073-.235-1.975-5.86-2.703-6.196a.238.238 0 00-.112-.038.23.23 0 00-.097.025c-.617.224-1.235 3.887-1.175 6.134v.013c-1.011 1.379-1.765 3.639-2.395 7.115-.456 2.496-.741 4.906-.801 6.668l-4.977-2.78c-.087-.063-.186-.038-.235.062-.036.074-.024.173.062.223l5.137 3.365c0 .795.073 1.428.221 1.875.013.024.025.05.051.062a.108.108 0 00.099.05h.06c.1-.037.137-.124.111-.224-.122-.36-.184-.894-.197-1.54l1.791 1.168-.296.57-1.371.385-.235.063c-.062.037-.123.086-.136.149 0 .075.025.137.099.162l1.506.907c.013.011.037.036.075.036.011 0 1.876.124 4.284.31l2.222 1.453 11.73 7.675-11.816-1.752c-.086-.011-.16.05-.197.138-.013.049.011.098.037.136.025.037.061.062.098.062l13.076 3.365-18.669.534a.163.163 0 00-.161.162c0 .111.075.186.161.186l23.249.646 2.669 2.582c.023.038.073.05.109.05h.075c.062-.025 7.224-2.608 9.976-3.204 2.729-.596 15.447 1.192 15.57 1.217.087.013.16-.05.199-.124.011-.099-.039-.186-.112-.21a2031.2 2031.2 0 00-12.459-4.682c2.1-.932 2.989-2.98 3.025-3.093a.155.155 0 00-.036-.173c-.05-.05-.124-.063-.198-.038l-.618.273a28.078 28.078 0 001.902-1.75c.358-.38.692-.783 1-1.205.729-1.068.975-1.788.754-2.31-.137-.335-.458-.558-.989-.695 1.705-1.813 2.186-3.812 2.298-4.384l6.951.336 3.642.77h.049l3.569-.15c.283 3.18 1.359 6.148 3.062 8.47-2.173-1.043-4.383-1.49-6.569-1.353-1.197.074-2.692.298-4.001.508-1.518.237-3.087.46-3.383.324-.333-.175-.356-1.305-.246-2.075a.185.185 0 00-.021-.092.181.181 0 00-.066-.069c-.073-.05-.148-.037-.198.012-.049.05-1.234 1.032-2.099 2.471-.062.1-.111.2-.172.311-.21.434-.272.845-.161 1.192.123.447.47.634.481.634.051.025.087.025.124.012 1.654-.372 4.655-.733 6.705-.77 2.296-.05 5.259.037 7.915 1.192 3.692 1.602 9.866 6.917 9.927 6.966a.154.154 0 00.148.038c.073-.013 6.617-1.788 9.779-3.292.9-.42 1.827-1.017 2.778-1.762 1.434-.186 3.087.123 4.42.807.074.037.136.087.197.123.124.026.223.051.334.087 2.617.808 4.519 1.18 6.853.808a1.063 1.063 0 00-.124-.51zm-7.815-40.233c-.076-.025-.148-.012-.186.037-.049.038-.073.1-.049.162l.284 1.019c.013.049.062.087.111.111l4.458 1.466-.681.658c-.06.036-.073.099-.06.16l.148.808a.223.223 0 00.099.137c.023 0 .036.012.062.012.024 0 .036 0 .059-.012l.014-.013c.013 0 .025 0 .036-.013l1.459-1.017c.035-.013.062-.05.073-.088l.197-.843c.025-.076-.036-.162-.11-.2l-3.89-1.564-2.024-.82zm3.629 4.383a.185.185 0 00-.042-.09.19.19 0 00-.081-.059l-3-1.203c-.063-.026-.111-.026-.16.011a.172.172 0 00-.056.065.165.165 0 00-.019.084l.061.783c0 .074.063.136.136.149l1.434.236v1.241c0 .075.049.15.109.174l1.471.447c.012 0 .035.013.048.013a.231.231 0 00.086-.025c.013 0 .013 0 .026-.013.05-.036.062-.087.062-.136l-.026-.633v-.025l-.049-1.019z" fill="#000"/><path d="M336.338 47.749c.013.024.048.05.085.062a.17.17 0 00.062.013c.076 0 .137-.05.162-.137.222-.72.37-1.689.345-2.285.012-.298-.011-.534-.073-.646-.224-.335-5.582-1.714-5.644-1.714a.26.26 0 01-.099-.049c.013-.062.05-.137.087-.248.074.075.111.136.161.161.197.099.678.21 1.272.21.506 0 1.074-.074 1.592-.334.989-.46 2.345-1.565 2.223-2.148-.026-.112-.16-.224-.358-.348-.902-.535-3.113-1.142-3.483-1.142a.559.559 0 00-.27.074c.529-1.416.234-3.017-.15-4.458-.629-2.322-3.714-9.177-5.235-12.108a.156.156 0 00-.085-.074l-.235-.1-.655-.273a.151.151 0 00-.171.038c-.062.037-.075.111-.062.174.16.422.654 1.503 1.283 2.893 1.236 2.744 2.927 6.494 3.655 8.656 1.137 3.463.469 5.09-.42 6.345a.193.193 0 00-.025.149c.011.05.038.087.099.111l.617.336c.038.012.062.025.087.025a.204.204 0 00.111-.038c.038-.037.099-.087.137-.124a5.158 5.158 0 00-.175 1.216c-.27.473-.382.796-.346 1.019a.75.75 0 00.026.298c.05.087.148.211.358.249.568.111 4.999 1.328 5.419 1.577.014.037.014.111.026.223a8.339 8.339 0 01-.346 2.074.21.21 0 00.012.124c0 .012 0 .025-.012.05-.012.05 0 .1.025.149z" fill="#000"/><path d="M329.077 25.732l2.865 7.227a.203.203 0 00.137.113l.555.062c.036.011.085 0 .112-.05.035-.025.072-.063.072-.112l.026-.236.172-2.161a.155.155 0 00-.049-.123.19.19 0 00-.136-.05l-.505.05-1.013-.746.011-.67 1.457.82a.189.189 0 00.198-.013c.049-.038.075-.125.061-.187l-.518-1.837 2.704 1.192c-.431.422-1.481 1.477-1.801 2.048-.297.485-.409 1.28-.446 1.689-.012.248-.012.41-.012.41-.012.074.038.136.099.161l1.296.522c.026.012.038.012.062.012.037 0 .086-.012.111-.05a.084.084 0 00.024-.048c.025-.051.039-.1.025-.138-.062-.149-.062-.807-.049-1.328v-.46c0-.347.617-.968 1.123-1.477.457-.46.903-.919 1.037-1.28.025-.05.038-.136-.011-.26-.395-.857-5.866-2.782-7.261-3.266h-.011a2.182 2.182 0 01-.111-.038c-.062-.011-.148 0-.187.05a.16.16 0 00-.046.082.164.164 0 00.009.092zm-.295 20.713c.024 0 .036 0 .062-.013a2.722 2.722 0 001.284-.994c.16-.235.282-.509.37-.794.061-.285.099-.596.049-.907a3.386 3.386 0 00-.062-.321c-.148-.473-.469-.92-.902-1.169a1.695 1.695 0 00-.64-.236 2.342 2.342 0 00-1.026-.087c-.099.025-.16.112-.148.201 0 .035.023.06.049.086a.133.133 0 01-.012.036.18.18 0 00.002.07.18.18 0 00.029.062.174.174 0 00.118.068c.481.062.889.21 1.171.458.286.262.457.596.496.97.049.371-.027.77-.21 1.154a3.43 3.43 0 01-.42.683c-.099.087-.21.188-.335.26-.072.05-.11.162-.049.25h.013a.164.164 0 000 .11.193.193 0 00.161.113zm-17.274-27.63c-.301.34-.54.731-.705 1.155a5.422 5.422 0 00-.357 2.907c.049.334.136.645.271.955l-1.308-.546a73.784 73.784 0 00-1.655-5.427c1.247.31 2.493.646 3.754.957zm-27.103-4.581a28.9 28.9 0 00-1.765 1.017c-.037.038-.086.062-.174.137-.073.088-.085.112-.122.161-.062.084-.12.17-.173.26-.086.162-.173.336-.259.498-.148.336-.309.671-.444 1.006-.174.409-.322.807-.482 1.23-.099.235-.186.458-.285.645-.012.049-.012.1.013.137v.024c-.025.087 0 .174.086.212.073.049.186.011.223-.063l1.049-1.887c.161-.311.344-.621.531-.92.086-.148.171-.297.284-.434.037-.074.087-.137.123-.186.013-.013.024-.05.037-.05h.013s.023-.025.037-.025c.235-.124.469-.248.704-.36a55.166 55.166 0 013.099-1.515c.161-.062.32-.124.469-.174.074-.023.148-.062.198-.072l.012-.014.074.014c.297.049.691.11 1.025.172l2.111.385 4.222.807 4.224.782c1.407.273 2.815.509 4.197.832l1.668.373c.086.285.185.571.283.894 1.149 3.688 3.075 9.884 3.137 11.846.085 2.46-1.074 4.011-2.68 6.172l-.224.297c-.023.051-.049.101-.049.138 0 .111.125.211.224.16.247.038 1.396.385 2.42.735.013.01.037.01.049.01.036 0 .062-.01.085-.01.027.023.05.05.088.05.568.123 1.05.334 1.432.656.382.311.606.77.679 1.23a2.44 2.44 0 01-.259 1.428c-.133.281-.308.54-.519.77-.136.124-.296.236-.469.36-.074.05-.111.149-.049.223 0 .013 0 .013.013.013-.013.05-.026.087 0 .136.011.062.074.1.135.1.025 0 .049 0 .074-.012.568-.248 1.112-.634 1.482-1.192a2.778 2.778 0 00.47-1.963c-.099-.695-.507-1.366-1.099-1.726a2.388 2.388 0 00-.729-.323 3.431 3.431 0 00-.951-.211 9.84 9.84 0 00.185-.323c2.815-.124 3.001 1.477 3.001 1.54a.187.187 0 00.135.162l2.581.609h.037a.178.178 0 00.124-.05c.037-.038.062-.1.049-.15l-.345-2.124a.177.177 0 00-.048-.088.168.168 0 00-.089-.047l-4.803-1.081c.902-1.887 1.136-3.328 1.198-5.005.049-1.053-.247-2.98-.803-5.364l2.223.534a3.347 3.347 0 002.642.546l.074-.037c.024-.025.037-.062.05-.087 0-.037 0-.074-.013-.1a.152.152 0 00.05-.111c0-.11-.063-.187-.161-.187-.234 0-.47-.036-.679-.073a2.32 2.32 0 01-.469-.225 3.534 3.534 0 01-.889-.694 4.6 4.6 0 01-.346-.46 3.822 3.822 0 01-.642-1.528 5.92 5.92 0 01.075-2.371 4.836 4.836 0 01.691-1.615c.136-.186.259-.372.42-.558a.21.21 0 00.035-.09.21.21 0 00-.011-.097c-.012 0-.012 0-.012-.011a.151.151 0 00.048-.104.157.157 0 00-.036-.108.175.175 0 00-.248-.025 3.213 3.213 0 00-.555.536c-.063.049-.123.11-.21.16 0 0-.011-.012-.024-.012a298.373 298.373 0 00-4.383-1.243c-.16-.408-.297-.819-.456-1.217a.178.178 0 00-.124-.1l-2.125-.52a.209.209 0 00-.172.037.23.23 0 00-.038.174c.051.198.161.52.272.919a15.407 15.407 0 00-1.234-.311c-.345-.112-.692-.186-1.037-.273.073-.049.16-.137.272-.224.308-.273.74-.658 1.258-.67h.025c.729 0 8.027 1.08 12.803 2.57 4.002 1.254 8.384 3.415 9.99 4.532.099.063.186.125.26.187.123.1.222.174.271.249.322.385.63 1.092.877 1.663.308.72.395.932.58.958h.025a.249.249 0 00.161-.076.666.666 0 00.037-.087c.184-.508.012-2.409-.099-2.756-.186-.546-3.235-2.918-11.485-5.687-8.345-2.795-14-3.267-14.444-3.155-.322.086-.728.782-.914 1.206-.148.359-.296.83-.173 1.153-.864-.187-1.741-.372-2.618-.559-1.395-.322-2.802-.594-4.21-.88-1.405-.3-2.812-.587-4.222-.858l-2.112-.409c-.371-.063-.692-.125-1.099-.175l-.185-.012a1.093 1.093 0 00-.259.037c-.124.025-.21.062-.322.087a6.46 6.46 0 01-.53.236c-.334.162-.667.31-1 .484-.309.162-.631.336-.94.497-.036.024-.085.05-.123.088zm41.08 22.612h.013c.099 0 .171-.074.161-.173-.039-2.98.197-3.739.394-3.85.111-.062.246-.062.433.013.394.124.975.583 1.283 1.266a.193.193 0 00.137.1h.011c.074 0 .123-.038.161-.087l.914-1.652a.176.176 0 00.021-.096.177.177 0 00-.035-.09.19.19 0 00-.196-.05c-.445.124-.963.087-1.359.062l-.21-.013c-.248-.025-1.085-.657-1.581-1.117-.049-.05-.122-.05-.183-.025a.148.148 0 00-.1.15c-.012.16-.148 4.134-.025 5.401 0 .099.074.161.161.161zm2.211 1.838a.655.655 0 00.481-.187c.431-.385.369-1.49.087-3.973a.175.175 0 00-.062-.113.164.164 0 00-.124-.036.247.247 0 00-.1.05c-.049.037-.072.073-.061.124.112 1.179-.358 2.756-.506 3.005-.236.049-1.161.136-1.814-.212-.027-.012-.038-.012-.076-.012-.062 0-.123.05-.148.1a.164.164 0 00.049.224c1.074.656 1.78 1.03 2.274 1.03z" fill="#000"/><path d="M327.856 30.848h.061c.074 0 .136-.024.161-.087.036-.074.011-.186-.061-.223l-3.064-1.85c-.036-.013-.061-.013-.085-.013h-.074v-.012l-2.396-.21a6.1 6.1 0 01-.383-.174 4.163 4.163 0 01-.852-.994 3.773 3.773 0 01-.407-.845c-.099-.285-.148-.634-.185-.968a4.116 4.116 0 01.296-1.925 5.07 5.07 0 01.703-1.142c.162-.187.309-.36.495-.534.049-.062.074-.137.037-.2a.202.202 0 00.037-.111c0-.05-.013-.087-.037-.111-.049-.076-.149-.087-.236-.038-.085.062-.159.136-.233.198-.383-.118-.762-.25-1.136-.396-.975-.336-2.335-.796-3.249-1.043-.097-.026-.196.024-.221.111a.194.194 0 00.025.15c0 .01-.014.01-.014.024 0 .013-.011.024-.011.049 0 .075.061.149.136.175.358.111.729.247 1.086.372l1.112.373c.603.198 1.198.396 1.802.583l-.099.1c-.368.298-.681.66-.925 1.067-.434.695-.617 1.553-.568 2.372.025.298.049.596.124.894l-2.902-.968c-.05-.013-.086-.013-.125.024l-.777.286-.803.298-.073.075a.225.225 0 00-.025.098c0 .075.05.125.112.162l5.913 2.049.1.024c.407.299.889.498 1.368.536.076.011.138-.013.175-.076.012-.012.012-.024.012-.037l1.123.298 4.063 1.64z" fill="#000"/><path d="M324.682 27.856c-.062.074-.073.16-.013.223a.184.184 0 00.013.137.163.163 0 00.148.087.22.22 0 00.087-.026c.617-.42 1.123-1.104 1.271-1.924.148-.807-.049-1.64-.394-2.322a3.338 3.338 0 00-1.778-1.614 2.77 2.77 0 00-1.185-.187 2.717 2.717 0 00-1.099.175.157.157 0 00-.075.06c-.025.051-.037.113-.012.163 0 .013.012.024.025.037-.013.025-.013.05-.013.074.013.113.099.174.197.162a2.654 2.654 0 011.791.336c.531.298.938.757 1.198 1.266.271.558.445 1.154.431 1.739a3.185 3.185 0 01-.357 1.34 2.46 2.46 0 01-.235.274zm-1 6.619a.194.194 0 00-.125-.137l-9.234-2.596a.205.205 0 00-.148.025.208.208 0 00-.062.149v2.46c0 .086.062.148.136.161.098.012.173-.038.198-.113 0-.011.445-1.415 1.234-1.303.766.1.79 1.08.79 1.118 0 .087.063.149.124.174.05.011 4.753 1.254 5.938 1.552.111.025.21.036.321.036a.726.726 0 00.532-.198c.432-.398.309-1.241.296-1.328zm-9.557-4.782a.198.198 0 00-.044.076.195.195 0 00-.005.086l.037.683a.194.194 0 00.033.096c.02.029.047.051.078.065l9.1 2.882a.096.096 0 00.049.011.35.35 0 00.112-.024.22.22 0 00.074-.124c0-.012.037-.31.037-1.143 0-.906-.161-1.18-1.037-1.577-.827-.41-8.05-2.471-8.359-2.57a.206.206 0 00-.15.025.21.21 0 00-.055.072.195.195 0 00-.018.088l.037.858a.197.197 0 00.124.149l3.468 1.192-3.333-.87a.209.209 0 00-.148.026zm8.655 6.967l-.851.88-4.445-1.216-1.05-.707c-.049-.038-.111-.038-.173-.013a.155.155 0 00-.086.137l-.086 1.552a.163.163 0 00.123.186l6.359 1.763c.012.013.024.013.05.013a.24.24 0 00.086-.025.363.363 0 00.073-.137l.297-2.284c.013-.075-.025-.15-.087-.174-.061-.038-.148-.025-.21.025zm-21.595-21.495c.087.05.198.012.235-.076.222-.37.408-.756.63-1.129.209-.373.432-.733.705-.931a.6.6 0 01.443-.15c.185-.011.407 0 .617.014.407.023.827.062 1.259.136 1.704.21 3.372.609 5.051 1.018a99.74 99.74 0 014.975 1.428 139.59 139.59 0 014.914 1.615c.013 0 .025.012.05.012a.197.197 0 00.174-.111.187.187 0 00-.014-.162c0-.013.014-.013.014-.024.036-.087-.014-.187-.099-.225-11.534-4.259-16.607-4.482-17.236-4.321-.358.1-.656.397-.927.832a.908.908 0 00-.148.236c-.223.373-.433.83-.679 1.367l-.038.074c-.025.049-.011.124.013.162 0 .011-.013.011-.013.024a.185.185 0 00.074.211zm11.619 4.023a2.88 2.88 0 012.099.348c.296.198.555.41.755.683.085.149.159.273.245.447.075.16.136.347.198.51.235.707.346 1.427.271 2.135-.021.37-.1.735-.235 1.08a5.8 5.8 0 01-.234.596c-.086.087-.16.187-.245.285a.167.167 0 00-.039.098.167.167 0 00.025.102c-.013.062-.013.123.024.16.038.076.111.087.198.063.025 0 .037-.012.051-.025.344-.26.64-.571.888-.943.236-.383.407-.803.506-1.243.2-.891.122-1.823-.223-2.67-.049-.086-.073-.173-.111-.285-.049-.099-.099-.199-.148-.323a4.221 4.221 0 00-.407-.596 3.113 3.113 0 00-1.112-.857 3.35 3.35 0 00-1.185-.236 2.747 2.747 0 00-1.444.174.13.13 0 00-.075.062c-.025.05-.035.112-.012.162 0 .012.012.025.025.037-.013.025-.025.062-.013.086.013.113.112.162.198.15zm-.951 8.457l-1.159-.472a.171.171 0 00-.174.025.173.173 0 00-.049.186c.43 1.577.58 4.098-.099 6.16-.012.037 0 .086.013.124.037.062.072.086.122.098l1.544.385h.036a.196.196 0 00.112-.036c.049-.025.075-.075.063-.15l-.297-6.171a.156.156 0 00-.112-.15zm-30.657-5.451a21.84 21.84 0 001.234 2.309c.259.385.506.758.975 1.08.136.074.272.136.469.161.149 0 .346-.012.433-.036.235-.05.456-.1.655-.162.37-.1.728-.211 1.074-.311.234.286.493.609.629.683.037.026.074.037.161.037.197 0 .593-.111 1.456-.41.692-.222 1.519-.508 1.815-.508.272 0 .569.037.84.075.52.062.754.098.878-.038.098-.1.086-.273.01-1.005-.01-.187-.049-.447-.06-.672.198-.062.369-.1.555-.136l.136-.024.111-.013a.567.567 0 01.234.024c.21.025.42.063.617.1l1.273.26c1.087.225 2.198.448 3.308.672-.221.683-.493 1.837-.419 2.035a.224.224 0 00.074.076c.593.41 4.384 1.403 5.174 1.539.186.025.32.038.419.038.136 0 .223-.038.259-.1.174-.211.174-1.192.148-1.937.866.235 1.73.447 2.619.609.074.011.148-.013.185-.075a.136.136 0 00.027-.08.136.136 0 00-.027-.081c.023-.013.036-.026.05-.038a.184.184 0 00-.112-.224c-.357-.124-.79-.285-1.298-.434a2.115 2.115 0 01-.245-.1 18.896 18.896 0 00-1.606-.52 20.6 20.6 0 00-1.728-.436c-.493-.136-1.024-.26-1.569-.41l-.099-.037c-.716-.211-1.086-.298-1.271-.347-.197-.05-.21-.05-.223-.05-.023 0-.036 0-.05.012-.43-.124-.837-.223-1.257-.323-.717-.21-1.433-.422-2.174-.607a48.587 48.587 0 00-1.259-.324c-.223-.05-.42-.099-.655-.15-.1-.011-.234-.036-.382-.036-.087 0-.161 0-.236.012l-.172.025c-.481.062-.901.2-1.322.31a2.123 2.123 0 01-.309.088c-.308.111-.628.198-.937.298-.827.26-1.644.558-2.458.844-.802.285-1.629.584-2.42.857-.198.062-.408.124-.58.187-.123.024-.148.024-.21.036h-.049c-.038-.012-.062-.025-.087-.037-.271-.149-.568-.471-.816-.795a12.344 12.344 0 01-.8-1.08c-.161-.286-.335-.546-.47-.807l-.223-.373a.168.168 0 00-.103-.082.163.163 0 00-.13.02c-.088.037-.111.162-.062.236v.013c-.026.049-.026.1 0 .162zm4.852 10.504c1.321-.844 2.791-1.514 4.334-1.763.394-.062.777-.1 1.148-.038.383.05.778.138 1.173.212.784.15 1.566.312 2.346.484a355.4 355.4 0 019.334 2.1c.013.024.025.024.049.024.013 0 .026 0 .038-.025.152-.03.295-.093.42-.186.11-.078.213-.165.309-.26l.283-.25.148-.124c.062-.062.111-.136.161-.198.198-.298.259-.596.297-.883.023-.264.035-.529.036-.794l-.025-.758c0-.236.013-.496-.024-.77a1.897 1.897 0 00-.135-.496 1.21 1.21 0 00-.322-.398c-.098-.074-.185-.124-.259-.173-.136-.1-.297-.236-.507-.36-.073-.063-.172-.038-.234.037-.049.074-.038.174.024.223a.176.176 0 00.025.186c.148.212.333.41.433.572.086.174.086.249.099.472 0 .21-.013.46-.013.72.013.273.024.522.049.77v.111c-1.247-.347-3.061-.781-4.89-1.192-.159-.05-.332-.087-.48-.123l-2.001-.498-.914-.223-2.926-.67c-.716-.161-1.457-.348-2.235-.435-.259-.024-.518-.05-.79-.062a4.65 4.65 0 00-1.593.174c-.531.149-.987.31-1.456.509a54.99 54.99 0 00-3.05 1.366c-.951.435-1.828.832-2.371 1.08a.18.18 0 00-.074.236c0 .013.012.013.012.025a.144.144 0 00-.012.124c.037.087.135.15.222.1h.012c1.853-.709 3.704-1.441 5.557-2.137.469-.149.925-.322 1.382-.447.432-.111.889-.16 1.347-.149.925.038 1.9.262 2.876.473l2.914.62 2.926.597c1.864.396 3.73.757 5.581 1.192 0 .098-.024.211-.037.298-.259.273-.691.347-1.296.185-.593-.136-9.594-2.073-11.52-2.445-2.037-.386-3.828.708-6.569 2.508-.074.05-.087.149-.049.224a.242.242 0 000 .186c.049.074.172.099.247.05z" fill="#000"/><path d="M282.183 19.45c.086.035.184 0 .223-.1.21-.472.407-.957.666-1.416.234-.46.506-.907.827-1.23.136-.137.37-.235.605-.36.235-.1.458-.198.704-.286a15.72 15.72 0 011.457-.52 7.443 7.443 0 011.482-.336c.247-.025.443 0 .716.037l.21.038c-.742.074-1.296.185-1.494.223-.383.075-.728.907-1.321 2.595-.062.187-.138.348-.187.497-.246.67-.876 4.049-.629 4.545a.21.21 0 00.149.124c.309.087 2.976-.733 4.741-1.279.864-.286 1.519-.497 1.532-.509.111-.062.184-.186.345-.484.469-.832 1.32-2.36 3.123-2.16 1.84.185 2.446 2.26 2.717 3.153.087.335.124.434.21.497.049.013 4.482 1.565 5.173 1.565h.075c.184-.05.506-.15.383-5.936v-.025c.259.061.492.137.679.174.011 0 .037.012.049.012.086 0 .148-.05.172-.15a.175.175 0 00-.122-.197c-1.914-.472-7.372-1.653-11.286-2.46-.087-.011-.161-.036-.247-.06l-.309-.051c-2.47-.497-3.852-.757-4.259-.808-1.186-.124-3.692.87-4.618 1.38-.124.061-.21.124-.272.173-.025.024-.049.062-.086.087a.68.68 0 00-.099.086c-.42.46-.655.945-.876 1.441a.556.556 0 01-.051.136 14.18 14.18 0 00-.48 1.218c-.013.063-.013.099.011.15 0 0-.011.011-.011.024-.027.087.011.186.098.211zm15.323 8.331h.013c0 .013.012.013.012.025l-.025-.025zm.247 1.03v.013c-.014.062 0 .112.036.15a.202.202 0 00.137.061.253.253 0 00.112-.037c.296-.249.394-.67.368-1.043a1.31 1.31 0 00-.171-.559l-.037-.075c-.025-.036-.025-.05-.074-.099-.037-.037-.076-.062-.112-.1-.063-.037-.063-.024-.098-.049a2.23 2.23 0 00-.247-.124c-.062-.025-.125-.037-.174-.062a23.076 23.076 0 00-1.591-.496c-.593-.162-1.187-.287-1.778-.423a22.739 22.739 0 00-1.78-.348l-.05-.012a.378.378 0 00-.308.087 1.275 1.275 0 00-.319.51 1.396 1.396 0 00-.112.484c-.039.334 0 .645.06.918a.203.203 0 00.161.15h.013c.085.011.174-.063.186-.163v-.011c.024-.249.074-.51.172-.745.05-.1.112-.212.173-.287.013-.011.024-.011.024-.024.532.124 1.039.26 1.57.373l1.753.421c.579.124 1.173.262 1.691.435l.099.038.074.025h.011c.051.086.093.178.125.273.072.16.099.323.099.508 0 .013-.013.026-.013.037a.15.15 0 000 .174zm-50.771 5.304c.035 0 .062-.013.098-.026 0-.012.013-.012.013-.025a.134.134 0 00.085-.062c.137-.087.693-.51 1.446-1.08.764-.584 1.716-1.304 2.665-2.05 1.879-1.464 3.743-2.917 3.842-3.128.11-.248 2.111-4.496 2.233-4.831.038-.112.125-.583.286-1.551.259-1.578.641-3.974.937-4.844.433-1.217 1.483-2.024 5.617-2.47-.147.11-.282.235-.381.322-.074.062-.087.174-.024.236a.162.162 0 00.134.075.137.137 0 00.088-.038 38.468 38.468 0 011.764-1.105.184.184 0 00.013.174c.026.05.075.075.148.075a.255.255 0 00.088-.025c1.517-.97 1.826-.97 2.271-.72a.28.28 0 01.087.111c.061.236.049.683.023 1.354l-.011.397c-.024 1.005-.21 2.707-.371 4.197-.284 2.646-.308 3.067-.197 3.204a.24.24 0 00.186.074c.259 0 .813-.298 2.333-1.18a36.22 36.22 0 011.469-.844c1.42-.757 8.717-4.52 11.904-5.997.11-.05.197-.088.296-.149a.303.303 0 01.085-.026l.21-.098c.098-.038.136-.138.098-.236-.023-.075-.134-.124-.221-.087l-.248.111c-.012.012-.037.012-.085.05a2.69 2.69 0 01-.273.111c0 .013-.011.013-.011.013-5.013 2.248-12.694 5.836-13.46 6.197-.171.1-.456.173-.69.024-.249-.136-.397-.51-.42-1.055-.012-.273-.012-.795-.012-1.378.012-1.677.025-3.974-.285-4.782 0 0 0-.011-.011-.011v-.025a.628.628 0 00-.125-.2h-.013v-.011c-.01 0-.01 0-.01-.013h-.013c-.014-.025-.038-.038-.049-.05h-.014a1.181 1.181 0 00-.617-.186c-.112 0-.224.013-.333.038 1.446-.696 2.124-.758 2.656-.82l.369-.038c.272-.05.84-.05 1.655-.012a4.543 4.543 0 00-.618.211c-.21.099-.445.248-.655.434a2.79 2.79 0 00-.69 1.355c-.21.918-.21 1.788-.21 2.657 0 .857.024 1.713.073 2.57.012.075.075.162.161.174.087.012.186-.062.198-.149.136-.857.222-1.7.32-2.558.075-.857.137-1.714.335-2.459.099-.385.258-.707.468-.907a1.41 1.41 0 01.408-.273c.148-.061.309-.136.493-.16a6.07 6.07 0 011.187-.076c.42 0 .827.013 1.247.038.85.037 1.703.1 2.542.173l2.557.174c1.704.149 3.395.249 5.11.335.039 0 .088-.011.111-.037.05-.025.063-.074.076-.111 0-.038-.013-.063-.026-.099.013-.038.026-.062.026-.088.012-.087-.062-.174-.161-.174l-.853-.098a1.227 1.227 0 00.531-1.007c0-.695-.568-1.254-1.247-1.254-.678 0-1.246.56-1.246 1.254 0 .324.122.622.332.845l-.801-.074c-.026-.05-.062-.075-.099-.075-.186-.038-.567-.1-1.087-.187l-.235-.036a1.29 1.29 0 00.384-.907c0-.696-.556-1.267-1.249-1.267-.69 0-1.234.571-1.234 1.267-.003.186.04.369.125.534-.581-.1-1.186-.198-1.803-.323.098-.174.172-.385.172-.609a1.274 1.274 0 00-.369-.883 1.257 1.257 0 00-.877-.371c-.692 0-1.261.571-1.261 1.254 0 .087.014.15.037.224-2.024-.335-3.271-.522-3.716-.522h-.037c-1.16.025-4.592 2.11-6.235 3.378 0-.013.012-.037.012-.05-.012-.086-.111-.148-.184-.148-3.902.247-5.766.956-6.261 2.42-1.024 3.105-4.062 11.263-4.741 11.997-.197.223-3.582 3.576-6.249 5.625-.013.013-.023.024-.036.024l-.036.025v.013c-.089.049-.112.149-.05.236a.173.173 0 00.136.075zm31.521 6.258c-.073-.037-.16-.024-.222.062l-1.975 2.694c-.037.076-.037.162.012.224a.18.18 0 00.21.037l2.481-1.166 3.692 2.595c.025.025.062.025.099.025h.062c.038-.013.087-.05.099-.1l.79-1.987a.12.12 0 00.026-.083.123.123 0 00-.039-.078c-.023-.063-.086-.087-.135-.087h-1.58l-3.52-2.136z" fill="#000"/><path d="M282.233 39.913l-2.704-1.216-.518-1.006a.194.194 0 00-.137-.1l-3.606-.658c-.085-.013-.172.038-.184.136l-.37 1.441-.816 1.366c-.049.062-.025.149.038.21a.147.147 0 00.05.036.157.157 0 00.121 0 .147.147 0 00.05-.035l1.298-1.105h2.406l4.434 2.372a.154.154 0 00.072.012c.039 0 .076 0 .099-.025.049-.049.088-.111.088-.173l-.21-1.13a.195.195 0 00-.041-.076.18.18 0 00-.07-.049zm-11.422 1.577c-2.334-.77-5.197.994-6.965 4.309-1.518 2.857-2.036 7.575-1.196 10.79.025.076.087.125.16.125h.025c.085-.011.148-.074.161-.173.135-3.763.814-8.432 4.666-11.176 1.137-.795 2.273-1.044 3.359-.708 2.05.634 3.63 3.054 4.383 4.955.025.074.111.123.21.099.075-.025.124-.099.11-.199-.826-6.022-3.715-7.624-4.913-8.022z" fill="#000"/><path d="M272.996 60.552c-.568.421-1.06.583-1.48.472-.52-.137-.975-.658-1.421-1.59-.419-.919-.678-2.36-.692-3.874-.024-1.64.235-3.39.841-4.731.53-1.155 1.32-1.85 2.111-1.826.864.013 1.642.894 2.271 2.509a.117.117 0 00.074.074.174.174 0 00.136.025.174.174 0 00.111-.186c-.604-3.576-1.84-5.427-3.753-5.65-2.197-.261-4.137 2.085-5.074 4.507-.89 2.322-1.914 8.507.888 11.847.716.844 1.568 1.29 2.481 1.29.1 0 .187-.01.261-.01 1.32-.114 2.617-1.106 3.494-2.634a.164.164 0 00.025-.11.164.164 0 00-.05-.101c-.074-.05-.16-.074-.223-.012z" fill="#000"/><path d="M274.848 53.796c-.209-.757-.58-1.254-1-1.29h-.109c-.817 0-1.285.856-1.643 1.539-.088.186-.186.347-.259.484-.049.074-.088.087-.111.1-.174.025-.457-.15-.667-.299-.259-.16-.456-.298-.63-.185-.147.098-.136.31-.124.372.039.36-.111.609-.21.77-.049.099-.099.186-.099.261 0 .036 0 .074.024.123.063.124.224.124.285.124.074 0 .148.125.222.311.125.286.296.683.765.683.187 0 .42.161.667.336.321.223.717.51 1.173.51.223 0 .457-.063.706-.238 1.122-.757 1.319-2.409 1.01-3.6zm-14.495-28.139a.18.18 0 00.124.05.092.092 0 00.061-.024c.198-.088 1.852-1.118 3.457-2.161 1.619-1.043 3.211-2.136 3.297-2.36.025-.049 1.012-6.817.555-7.426-.049-.062-.148-.136-.331-.087-.927.212-4.927 3.825-5.038 4.36-.039.186-.434 1.502-.865 2.917-1.395 4.62-1.384 4.633-1.26 4.731zm3.248-10.753a.175.175 0 00.098-.076.175.175 0 00.025-.123.157.157 0 00-.112-.132.158.158 0 00-.061-.005c-2.877.286-3.779.919-4.236 1.428-.53.584-.789 2.608-.999 4.706-.197 2.112-.789 6.222-1.261 6.88-.035.088-.035.174.027.224a.17.17 0 00.121.049c.039 0 .063 0 .1-.025.075-.049.186-.111.285-.173.556-.36 1.186-.745 1.32-1.155.076-.2.483-1.85.962-3.776.483-1.973 1.088-4.444 1.151-4.62.097-.197.951-1.55 2.136-2.681.072-.061.086-.161.024-.223-.063-.087-.162-.1-.234-.025-.335.236-.889.62-1.372.956-.519.348-.963.646-1.098.77-.197.174-.482.956-1.049 3.005.173-1.515.333-2.77.567-3.154.309-.547.976-1.192 3.606-1.85zm-13.064 23.842c.036.075.148.111.233.062.755-.422 1.483-.881 2.237-1.316.63-.385 1.27-.782 1.913-1.18l-.036 2.298-.013 2.843c0 .944 0 1.888.013 2.844v.012a.17.17 0 00.124.162 8.384 8.384 0 00-.705.26c-1.395.522-2.495.956-2.791 1.043a.167.167 0 00-.09.086.174.174 0 00-.008.125c.012.075.086.125.16.125h.025l.074-.013c.469-.061 2.89-.497 5.211-.955 2.309-.447 4.556-.92 4.655-1.032.185-.186.185-1.352.085-1.701-.011-.05-.049-.223-.184-.26-.013 0-.037-.013-.049-.013-.223 0-2.186.745-6.187 2.26.013-.037.025-.062.025-.087.024-.956.049-1.9.087-2.843l.036-2.856.013-2.856c0-.956 0-1.901-.013-2.857v-.174c0-.087-.085-.16-.184-.16-.026 0-.038 0-.062.011a.152.152 0 00-.072.06.151.151 0 00-.026.09v.186a203.43 203.43 0 00-.088 2.818c-.741.46-1.421.858-2.074 1.243-.753.458-1.469.88-2.259 1.378a.156.156 0 00-.072.101.168.168 0 00.022.122c-.026.062-.036.124 0 .174zm-4.333-.125a.198.198 0 00.098.038c.098.013.184-.05.184-.162.075-.483.088-.993.161-1.453.039-.21.088-.434.161-.62.049-.087.088-.162.137-.211l.072-.087.125-.112c.358-.286.74-.596 1.124-.907l1.149-.905c.171-.125.319-.262.493-.386 1.37-1.105 2.765-2.198 4.099-3.366.06-.049.087-.149.037-.21.061-.062.061-.137.012-.21a.173.173 0 00-.234-.038c-.457.31-.926.658-1.432 1.03-.37.224-.754.46-1.112.696-.79.533-1.581 1.067-2.333 1.639-.049.024-.075.062-.111.087-.778.608-1.569 1.167-2.309 1.924l-.148.137c-.049.074-.111.136-.148.211a1.38 1.38 0 00-.199.459c-.086.286-.099.56-.086.82 0 .546.098 1.043.211 1.528.012.024.023.074.049.098zm2.407 31.604c-.778-.707-2.112-1.452-3.198-1.241-.605.123-1.06.509-1.357 1.13-.038.074-.027.16.049.21a.187.187 0 00.21.013c.517-.41 1.468-.112 2.173.373.666.434 1.086 1.005.999 1.316-.047.199-.32.323-.778.348-.073 0-.134.074-.148.16-.013.088.049.175.124.187.617.137 1.136.211 1.555.211.667 0 1.113-.174 1.31-.534.123-.249.112-.558 0-.87-.161-.458-.532-.943-.939-1.303zm-10.063 5.761c-1.395.062-2.593.648-3.36 1.702a.228.228 0 000 .21c.039.05.089.063.149.063h.063c2.889-1.068 3.816-.943 5.68-.683l.42.05c.06.012.121-.025.16-.1.049-.05.037-.124-.012-.186-.556-.658-1.84-1.105-3.1-1.056zm.839-10.691c-1.666-.397-3.494-.062-4.666.882-.889.732-1.358 1.738-1.334 2.93 0 .05.037.113.086.137.076.025.136.025.186-.013 1.963-1.378 4.63-1.316 5.42-.607.222.198.259.42.111.67-.037.075-.024.136.013.198.024.037.086.062.135.062.025 0 .038 0 .049-.012 2.297-.584 2.631-1.527 2.631-2.037-.013-.918-1.099-1.837-2.631-2.21z" fill="#000"/></svg>