<svg width="15" height="15" fill="none" xmlns="http://www.w3.org/2000/svg"><path d="M12.757 2.176a8.474 8.474 0 011.64 2.445c.402.904.603 1.841.603 2.812 0 1.34-.368 2.578-1.038 3.717-.67 1.138-1.607 2.042-2.745 2.712A7.2 7.2 0 017.5 14.866c-1.272 0-2.478-.301-3.55-.904L0 15l1.071-3.85A7.2 7.2 0 01.067 7.433a7.2 7.2 0 011.004-3.716 7.521 7.521 0 012.712-2.713A7.2 7.2 0 017.5 0c.971 0 1.908.2 2.813.57a9.092 9.092 0 012.444 1.606zM7.5 13.627a6.039 6.039 0 003.114-.837 6.354 6.354 0 002.277-2.243c.569-.938.87-1.976.87-3.114 0-.804-.167-1.574-.502-2.344a6.82 6.82 0 00-3.415-3.381 6.228 6.228 0 00-2.344-.47 6.191 6.191 0 00-3.114.838 6.354 6.354 0 00-2.243 2.277c-.57.937-.837 1.975-.837 3.08 0 1.205.301 2.277.97 3.281l.135.235-.636 2.276 2.343-.602.235.134c.937.602 2.009.87 3.147.87zm3.382-4.654l.1.067c.134.067.235.134.268.168v.334c0 .201-.067.369-.134.57-.067.2-.268.368-.536.569-.268.2-.502.301-.703.301a2.052 2.052 0 01-.904 0 5.369 5.369 0 01-1.34-.469c-1.137-.468-2.175-1.406-3.113-2.745L4.453 7.7c-.502-.67-.736-1.306-.736-1.909 0-.569.2-1.071.602-1.506l.034-.034c.134-.134.301-.234.502-.234h.402c.067 0 .134.033.2.067.068.033.101.1.168.234l.57 1.373c.066.134.066.268.033.335a2.786 2.786 0 01-.436.602c-.1.1-.167.168-.167.235-.033.067 0 .1.067.167.301.603.67 1.038 1.105 1.373.301.268.77.536 1.406.837.168.1.301.1.402-.033.268-.335.469-.57.603-.737.033-.067.1-.134.167-.134s.134.034.234.034c.168.066.603.267 1.273.602z" fill="#FAA61A"/></svg>