<svg width="62" height="65" fill="none" xmlns="http://www.w3.org/2000/svg"><path fill-rule="evenodd" clip-rule="evenodd" d="M6.617 24.853a8.635 8.635 0 012.314-.233.5.5 0 01.483.5v16.307a.5.5 0 01-.483.5 8.645 8.645 0 01-.298.005C3.863 41.932 0 38.054 0 33.274a8.661 8.661 0 015.611-8.113C5.775 11.238 17.078 0 31 0c13.922 0 25.225 11.238 25.389 25.16A8.661 8.661 0 0162 33.275a8.661 8.661 0 01-5.61 8.112v3.422c0 9.489-8.17 17.146-18.266 17.374A3.308 3.308 0 0134.856 65a3.309 3.309 0 01-3.304-3.313 3.309 3.309 0 013.304-3.313 3.308 3.308 0 013.267 2.807c9.613-.226 17.268-7.505 17.268-16.373v-3.115a8.633 8.633 0 01-2.322.234.5.5 0 01-.483-.5V25.12a.5.5 0 01.483-.5 8.635 8.635 0 012.314.232C55.058 11.623 44.265 1 31 1 17.735 1 6.942 11.623 6.617 24.853zm1.797.765C4.3 25.736 1 29.117 1 33.275c0 4.157 3.3 7.538 7.414 7.655V25.62zm45.172 0v15.31C57.7 40.813 61 37.432 61 33.275c0-4.158-3.3-7.539-7.414-7.655zm-18.73 33.756a2.309 2.309 0 00-2.304 2.313A2.309 2.309 0 0034.856 64a2.309 2.309 0 002.305-2.313 2.309 2.309 0 00-2.305-2.313z" fill="#FAA61A"/></svg>