<svg width="14" height="14" fill="none" xmlns="http://www.w3.org/2000/svg"><path d="M14 11.057c0-.07 0-.14-.03-.209-.07-.209-.557-.428-.756-.527-.566-.318-1.143-.626-1.7-.955-.258-.159-.576-.457-.885-.457-.606 0-1.491 1.8-2.028 1.8-.269 0-.617-.249-.855-.388-1.81-1.004-3.063-2.257-4.067-4.067-.14-.238-.388-.586-.388-.855 0-.537 1.8-1.422 1.8-2.028 0-.308-.298-.627-.457-.885-.329-.557-.637-1.134-.955-1.7-.1-.2-.318-.687-.527-.756A.508.508 0 0 0 2.943 0C2.585 0 1.89.16 1.561.308 1.074.517.756 1.074.507 1.521.19 2.108 0 2.705 0 3.371c0 .924.378 1.76.686 2.605.219.606.487 1.193.825 1.74 1.044 1.69 3.083 3.729 4.773 4.773a9.29 9.29 0 0 0 1.74.825c.845.308 1.68.686 2.605.686.667 0 1.263-.189 1.85-.507.447-.249 1.004-.567 1.213-1.054.149-.328.308-1.024.308-1.382z" fill="#FAA61A"/></svg>