<svg width="48" height="64" fill="none" xmlns="http://www.w3.org/2000/svg"><path d="M21.934 62.502l-.013-.023-.015-.021c-1.89-2.626-4.136-5.871-6.812-9.741l-1.558-2.252h0l-.003-.004c-4.254-6.006-6.99-9.987-8.227-12.09l-.007-.012-.008-.011c-1.985-2.978-3.208-5.434-3.814-7.372l-.004-.014-.005-.013C.75 29.032.5 26.727.5 24c0-4.167.98-8.077 3.179-11.743h0l.002-.004c2.08-3.55 4.894-6.364 8.574-8.573C15.804 1.6 19.716.5 24 .5c4.154 0 8.067 1.098 11.745 3.18 3.553 2.207 6.368 5.022 8.575 8.575 2.082 3.678 3.18 7.59 3.18 11.745 0 2.699-.367 5.018-.973 6.962-.735 1.958-1.966 4.422-3.824 7.395-1.37 2.118-4.114 6.108-8.24 12.109 0 0 0 0 0 0l-8.37 11.993-.001.002c-.52.727-1.234 1.039-2.092 1.039-1.009 0-1.682-.327-2.066-.998zm-5.413-31.023C18.624 33.58 21.13 34.5 24 34.5c2.877 0 5.256-.924 7.354-3.021C33.444 29.388 34.5 26.887 34.5 24c0-2.893-1.06-5.268-3.146-7.354C29.268 14.561 26.894 13.5 24 13.5c-2.887 0-5.388 1.056-7.479 3.146C14.424 18.744 13.5 21.123 13.5 24c0 2.87.92 5.376 3.021 7.479z" stroke="#FAA61A"/></svg>