<svg width="32" height="32" fill="none" xmlns="http://www.w3.org/2000/svg"><path fill-rule="evenodd" clip-rule="evenodd" d="M16.57 0l.55.002.529.002.509.003.489.003.469.005.447.006.428.006.407.007.387.008.367.009.346.009.326.011.305.011.285.012.265.013.272.015.149.009.157.011.165.012.172.015.179.018.185.021.095.012.096.013.098.013.1.015.1.016.102.017.103.018.104.019.105.021.107.022.107.024.109.024.109.027.11.028.111.029.112.031.113.033.113.034.114.036.114.038.115.04.116.042.116.044.116.045.117.048.117.05.117.052.117.054.117.057.118.059.118.061.117.064.118.066.117.068.118.072.117.073.116.077.117.079.116.082.116.084.115.088.115.09.114.093.114.097.113.099.112.102.112.106.11.109.109.11.106.112.102.112.1.113.096.114.093.114.091.115.087.116.085.116.082.116.079.117.077.117.074.117.071.117.069.118.066.118.064.118.062.118.059.118.057.117.055.118.052.118.05.117.049.117.046.117.044.116.042.116.041.116.038.114.037.115.035.114.033.113.032.112.03.112.028.111.027.11.025.109.024.108.023.107.021.106.021.105.018.103.018.103.017.101.015.1.015.099.026.193.023.187.019.181.017.174.015.166.012.159.011.151.02.277.008.26.008.281.008.302.007.322.006.343.006.364.005.384.005.405.008.872.006.954.003 1.037L32 16v.57l-.002.55-.002.529-.003.509-.003.489-.005.469-.006.447-.006.428-.007.407-.008.387-.009.367-.009.346-.011.326-.011.305-.012.285-.013.265-.015.272-.009.149-.011.157-.012.165-.015.172-.018.179-.021.185-.012.095-.013.096-.013.098-.015.1-.016.1-.017.102-.018.103-.019.104-.021.105-.022.107-.024.107-.024.109-.027.109-.028.11-.029.111-.031.112-.033.113-.034.113-.036.114-.038.114-.04.115-.042.116-.044.116-.045.116-.048.117-.05.117-.052.117-.054.117-.057.117-.059.118-.061.118-.064.117-.066.118-.068.117-.072.118-.073.117-.077.116-.079.117-.082.116-.084.116-.088.115-.09.115-.093.114-.097.114-.099.113-.102.112-.106.112-.109.11-.11.109-.112.106-.112.102-.113.099-.114.097-.114.093-.115.09-.115.088-.116.084-.116.082-.117.079-.116.077-.117.073-.118.072-.117.068-.118.066-.117.064-.118.061-.118.059-.117.057-.117.054-.117.052-.117.05-.117.048-.116.045-.116.044-.116.042-.115.04-.114.038-.114.036-.113.034-.113.033-.112.031-.111.029-.11.028-.109.027-.109.024-.107.024-.107.022-.105.021-.104.019-.103.018-.102.017-.1.016-.1.015-.098.013-.096.013-.095.012-.185.021-.179.018-.172.015-.165.012-.157.011-.149.009-.272.015-.265.013-.285.012-.305.011-.326.011-.346.009-.367.009-.387.008-.407.007-.428.006-.447.006-.469.005-.489.003-.509.003-.529.002-.55.002h-1.14l-.55-.002-.529-.002-.509-.003-.489-.003-.469-.005-.447-.006-.428-.006-.407-.007-.387-.008-.367-.009-.346-.009-.326-.011-.305-.011-.285-.012-.265-.013-.132-.008-.142-.009-.151-.011-.16-.014-.168-.016-.177-.019-.183-.022-.19-.026-.098-.015-.099-.015-.1-.016-.102-.018-.103-.018-.105-.02-.106-.021-.106-.022-.108-.023-.109-.025-.11-.026-.111-.027-.112-.028-.112-.031-.114-.031-.114-.033-.114-.035-.115-.036-.116-.038-.116-.039-.116-.042-.117-.043-.116-.044-.117-.047-.118-.048-.117-.05-.117-.052-.117-.055-.117-.056-.117-.058-.116-.06-.117-.062-.116-.065-.115-.066-.115-.069-.114-.071-.114-.073-.113-.076-.113-.078-.111-.08-.111-.083-.11-.086-.108-.087-.108-.091-.107-.093-.105-.095-.104-.099-.103-.101-.116-.117-.113-.119-.108-.118-.105-.119-.102-.119-.098-.119-.095-.12-.092-.119-.088-.12-.086-.12-.082-.119-.079-.12-.076-.119-.074-.12-.07-.119-.068-.119-.064-.119-.063-.119-.059-.118-.057-.118-.055-.117-.052-.117-.049-.117-.048-.116-.045-.116-.043-.115-.04-.114-.039-.114-.037-.113-.034-.112-.033-.112-.031-.111-.029-.11-.028-.109-.025-.108-.024-.107-.023-.106-.021-.105-.02-.104-.018-.103-.017-.102-.016-.101-.014-.099-.014-.098-.012-.097-.011-.095-.011-.094-.009-.093-.017-.181-.013-.175-.011-.168-.01-.161-.015-.302-.013-.27-.013-.265-.012-.285-.011-.305-.011-.326-.009-.346-.009-.367-.008-.387-.007-.407-.006-.428-.006-.447-.005-.469-.003-.489-.003-.509-.002-.529L0 16.57v-1.14l.002-.55.002-.529.003-.509.003-.489.005-.469.006-.447.006-.428.007-.407.008-.387.009-.367.009-.346.011-.326.011-.305.012-.285.013-.265.014-.271.008-.148.008-.155.011-.163.013-.169.015-.176.018-.183.01-.093.012-.095.012-.097.013-.097.014-.099.016-.101.016-.101.018-.103.019-.104.021-.104.022-.106.023-.107.025-.108.026-.109.029-.11.029-.111.032-.111.033-.112.036-.113.037-.114.039-.114.041-.115.043-.115.045-.116.048-.116.05-.117.052-.117.054-.118.057-.117.059-.118.062-.119.065-.118.067-.119.069-.118.073-.119.075-.118.078-.119.081-.119.084-.118.087-.118.091-.118.093-.118.096-.117.1-.117.103-.117.106-.116.11-.116.114-.115.115-.114.116-.11.116-.106.117-.103.117-.1.117-.096.118-.093.118-.091.118-.087.118-.084.119-.081.119-.078.118-.075.119-.073.118-.069.119-.067.118-.065.119-.062.118-.059.117-.057.118-.054.117-.052.117-.05.116-.048.116-.045.115-.043.115-.041.114-.039L6.075.6l.113-.036L6.3.531l.111-.032.111-.029.11-.029.109-.026.108-.025.107-.023.106-.022.104-.021.104-.019.103-.018.101-.016.101-.016.099-.014.097-.013.097-.012.095-.012.093-.01.183-.018.176-.015.169-.013.163-.011.155-.008.148-.008.271-.014.265-.013.285-.012.305-.011.326-.011.346-.009.367-.009.387-.008.407-.007.428-.006.447-.006.469-.005.489-.003.509-.003.529-.002.55-.002h1.14zm-1.106.963l-.517.001-.497.002-.479.003-.459.003-.44.004-.421.006-.402.005-.383.007-.363.008-.345.008-.325.009-.306.01-.287.01-.268.012-.249.012-.124.006-.133.006-.29.013-.156.007-.164.01-.17.011-.177.014-.183.017-.094.01-.095.011-.096.011-.098.013-.099.014-.1.015-.101.016-.102.017-.104.019-.104.02-.105.021-.107.023-.107.024-.107.026-.109.028-.11.03-.11.031-.11.033-.111.035-.112.036-.113.039-.112.041-.113.043-.114.045-.114.048-.114.049-.114.052-.114.055-.115.056-.114.06-.115.062-.114.064-.115.067-.114.07-.114.073-.114.075-.114.079-.114.081-.113.085-.112.087-.112.091-.112.094-.111.097-.111.1-.11.104-.109.107-.098.1-.095.102-.092.102-.089.103-.087.104-.083.105-.081.106-.078.107-.076.107-.072.108-.071.109-.067.109-.066.11-.063.11-.06.111-.058.111-.056.111-.054.111-.052.112-.049.112-.047.111-.046.112-.043.112L1.68 6l-.04.111-.037.112-.036.11-.034.111-.033.11-.031.11-.029.109-.027.108-.026.108-.025.108-.023.106-.022.106-.021.105-.019.104-.018.103-.017.102-.016.101-.015.1-.013.098-.013.098-.023.191-.019.185-.016.179-.014.173-.012.166-.009.158-.016.293-.013.258-.012.249-.012.268-.01.287-.01.306-.009.325-.008.345-.008.363-.007.383-.005.402-.006.421-.004.44-.003.459-.003.479-.002.497-.001.517L.962 16l.001.536.001.517.002.497.003.479.003.459.004.44.006.421.005.402.007.383.008.363.008.345.009.325.01.306.01.287.012.268.012.249.012.257.014.291.008.156.01.165.012.171.014.177.018.183.009.094.011.095.012.097.013.098.014.099.015.1.016.101.017.102.019.104.02.104.021.105.023.106.024.107.026.108.027.108.029.109.031.11.032.11.035.11.036.112.038.111.04.112.042.112.044.113.046.112.049.113.051.113.053.113.055.114.058.113.06.113.063.112.066.113.068.113.07.112.074.112.076.111.079.111.082.111.085.11.088.109.091.109.094.108.097.107.1.107.104.106.097.095.098.091.099.09.101.086.102.084.103.082.104.079.105.076.106.074.107.072.108.07.109.067.109.065.11.062.11.061.112.058.111.056.112.055.112.052.112.05.113.048.113.047.113.044.113.043.112.041.113.039.113.037.112.036.112.034.111.033.111.031.111.03.11.028.109.027.109.025.108.024.107.023.107.022.105.02.104.019.103.018.103.017.1.016.1.015.195.027.19.024.183.02.176.017.169.015.161.012.153.011.144.009.259.014.249.012.268.012.287.01.306.01.325.009.345.008.363.008.383.007.402.005.421.006.44.004.459.003.479.003.497.002.517.001.536.001.536-.001.517-.001.497-.002.479-.003.459-.003.44-.004.421-.006.402-.005.383-.007.363-.008.345-.008.325-.009.306-.01.287-.01.268-.012.249-.012.257-.012.291-.014.158-.009.164-.01.172-.013.178-.015.184-.018.095-.011.095-.011.097-.012.099-.014.099-.014.101-.016.102-.017.103-.018.104-.019.105-.021.106-.022.107-.024.108-.025.109-.027.109-.028.11-.03.111-.032.111-.034.112-.035.113-.038.113-.039.113-.042.114-.043.114-.046.114-.048.114-.05.115-.053.115-.054.115-.058.115-.059.115-.062.114-.065.115-.068.115-.07.114-.073.114-.075.114-.079.113-.081.113-.084.113-.088.112-.09.111-.094.111-.097.11-.1.11-.103.108-.107.099-.1.095-.101.092-.103.089-.103.087-.104.083-.105.081-.106.078-.107.075-.107.073-.108.07-.109.068-.109.065-.109.062-.11.061-.11.057-.111.056-.111.053-.111.051-.111.049-.111.047-.111.045-.111.043-.111.04-.111.039-.111.037-.111.036-.11.033-.11.032-.109.03-.109.028-.109.027-.107.026-.108.024-.106.022-.106.022-.105.02-.105.018-.103.018-.102.016-.102.015-.1.014-.099.013-.098.012-.097.022-.19.018-.184.015-.178.013-.172.011-.165.009-.158.014-.292.013-.257.012-.249.012-.268.01-.287.01-.306.009-.325.008-.345.008-.363.007-.383.005-.402.006-.421.004-.44.003-.459.003-.479.002-.497.001-.517.001-.536-.001-1.052-.004-.975-.005-.896-.007-.82-.005-.38-.005-.361-.005-.342-.006-.322-.007-.303-.007-.284-.007-.264-.008-.244-.024-.332-.012-.172-.014-.175-.016-.18-.018-.182-.019-.186-.023-.189-.025-.192-.013-.097-.015-.097-.015-.098-.017-.099-.017-.099-.019-.099-.019-.101-.02-.1-.022-.101-.023-.102-.024-.101-.025-.103-.027-.102-.027-.103-.03-.103-.03-.103-.033-.104-.033-.104-.035-.103-.037-.105-.038-.104-.04-.104-.042-.104-.043-.105-.046-.104-.047-.104-.049-.105-.051-.104-.052-.104-.055-.104-.057-.104-.059-.104-.061-.104-.063-.103-.065-.103-.068-.103-.069-.102-.073-.103-.074-.101-.077-.102-.079-.101-.082-.101-.084-.1-.087-.1-.09-.099-.092-.098-.094-.097-.094-.095-.096-.091-.096-.089-.097-.086-.098-.084-.098-.081-.099-.079-.1-.076-.1-.074-.101-.071-.101-.069-.102-.067-.102-.064-.103-.063-.103-.06-.103-.058-.104-.056-.104-.054-.104-.051-.105-.05-.105-.048-.105-.046-.105-.045-.105-.042-.106-.041-.105-.039-.106-.037-.106-.036-.105-.034-.106-.033-.105-.031-.105-.029-.106-.028-.105-.027-.105-.026-.104-.024-.105-.023-.104-.021-.103-.021-.104-.019-.103-.018-.103-.018-.102-.016-.101-.015-.102-.014-.1-.014-.101-.012-.198-.023-.196-.02-.194-.017-.19-.015-.187-.014-.183-.011-.18-.011-.175-.009-.249-.012-.268-.012-.287-.01-.306-.01-.325-.009-.345-.008-.363-.008-.383-.007-.402-.005-.421-.006-.44-.004-.459-.003-.479-.003-.497-.002-.517-.001L16 .962l-.536.001z" fill="#FAA61A"/><path d="M24.479 9.41a1.92 1.92 0 100-3.84 1.92 1.92 0 000 3.84z" fill="#FAA61A"/><path fill-rule="evenodd" clip-rule="evenodd" d="M16 8.078a7.924 7.924 0 017.918 7.92A7.924 7.924 0 0116 23.915a7.924 7.924 0 01-7.919-7.919A7.924 7.924 0 0116 8.078zm0 1.085a6.837 6.837 0 016.833 6.834A6.837 6.837 0 0116 22.831a6.837 6.837 0 01-6.834-6.834A6.837 6.837 0 0116 9.163z" fill="#FAA61A"/></svg>