<svg width="32" height="32" fill="none" xmlns="http://www.w3.org/2000/svg"><path d="M28.201.067c1.955.065 3.666 1.745 3.732 3.737.09 8.145.09 16.291 0 24.436-.066 1.99-1.803 3.716-3.827 3.738h-5.848c-.411-.029-.502-.14-.529-.53v-12.19c.029-.411.141-.501.529-.53h3.662l.479-3.622h-4.141c-.411-.03-.502-.141-.529-.53 0-2.224-.525-5.077 1.732-5.646a4.538 4.538 0 011.064-.118h1.949V5.678c-3.306-.372-7.258-.143-8.253 3.456-.18.65-.245 1.326-.247 2v3.442c-.03.412-.142.502-.53.53h-3.665v3.623h3.665c.41.029.502.14.53.53v12.19c-.03.411-.142.502-.53.53-4.548 0-9.097.05-13.645-.002C1.845 31.912.133 30.23.067 28.24a1118.24 1118.24 0 010-24.436C.132 1.847 1.812.133 3.799.067a1115.13 1115.13 0 0124.402 0zM3.899 1.126c-1.437.016-2.724 1.23-2.773 2.702-.09 8.129-.09 16.26 0 24.389.047 1.433 1.3 2.685 2.773 2.701h13.016v-11.13h-3.666c-.411-.028-.502-.14-.53-.53v-4.682c.03-.412.142-.502.53-.53h3.666c0-2.56-.223-5.291 1.304-7.268 1.876-2.428 5.537-2.526 8.669-2.118.101.013.61.063.645.55v4.132c-.03.412-.142.503-.53.53-1.364 0-2.931-.415-3.842.35-.324.273-.374 1.394-.374 1.394v2.43h4.216c.478.034.541.334.525.6l-.619 4.683c-.078.378-.165.434-.525.46h-3.597v11.13c1.797 0 3.594.018 5.39-.002 1.407-.047 2.65-1.254 2.697-2.7.09-8.129.09-16.26 0-24.39-.047-1.408-1.253-2.652-2.697-2.7-8.092-.09-16.185-.001-24.278-.001z" fill="#FAA61A"/></svg>