<svg width="64" height="65" fill="none" xmlns="http://www.w3.org/2000/svg"><path fill-rule="evenodd" clip-rule="evenodd" d="M56.892.042a.5.5 0 01.644.225l4.627 8.791a.5.5 0 01-.885.466l-4.046-7.687C51.572 21.075 36.397 43.963 1.637 48.82a.5.5 0 11-.138-.99c34.37-4.803 49.281-27.44 54.823-46.445l-8.638 3.793a.5.5 0 11-.402-.916l9.61-4.22zm-4.926 21.205a.5.5 0 01.5-.5h7.83a.5.5 0 01.5.5v39.385a.5.5 0 01-.5.5h-7.83a.5.5 0 01-.5-.5V21.247zm1 .5v38.385h6.83V21.747h-6.83zM39.864 36.72a.5.5 0 01.5-.5h7.83a.5.5 0 01.5.5v23.912a.5.5 0 01-.5.5h-7.83a.5.5 0 01-.5-.5V36.72zm1 .5v22.912h6.83V37.22h-6.83zm-13.813 7.236a.5.5 0 01.5-.5h7.83a.5.5 0 01.5.5v16.176a.5.5 0 01-.5.5h-7.83a.5.5 0 01-.5-.5V44.456zm1 .5v15.176h6.83V44.956h-6.83zm-13.102 5.126a.5.5 0 01.5-.5h7.83a.5.5 0 01.5.5v10.55a.5.5 0 01-.5.5h-7.83a.5.5 0 01-.5-.5v-10.55zm1 .5v9.55h6.83v-9.55h-6.83zM2.136 53.6a.5.5 0 01.5-.5h7.83a.5.5 0 01.5.5v7.033a.5.5 0 01-.5.5h-7.83a.5.5 0 01-.5-.5V53.6zm1 .5v6.033h6.83V54.1h-6.83zM0 64.5a.5.5 0 01.5-.5h63a.5.5 0 110 1H.5a.5.5 0 01-.5-.5z" fill="#FAA61A"/></svg>