<svg xmlns="http://www.w3.org/2000/svg" width="64" height="48" fill="none"><path stroke="#FAA61A" d="M63.06 16.267l.023-.018.02-.02a.3.3 0 0 1 .08-.06h.003l.001-.001h.004a.146.146 0 0 1 .024.005c.098.098.173.178.229.252.039.052.052.08.056.09V42c0 1.612-.569 2.862-1.604 3.896-1.15 1.15-2.395 1.604-3.896 1.604H6c-1.638 0-2.866-.46-3.878-1.584l-.018-.02-.02-.018C.96 44.866.5 43.638.5 42V16.5c0-.088.041-.15.099-.178a.507.507 0 0 1 .214-.04c.074 0 .137.011.18.026 2.781 2.148 9.139 6.883 19.193 14.082l1.23 1.107.016.015.018.013.044.033c1.957 1.468 3.483 2.612 4.771 3.259C28.318 35.969 30.148 36.5 32 36.5c1.724 0 3.683-.53 5.745-1.813 1.286-.648 2.809-1.79 4.76-3.254l.045-.033.006-.005.006-.005 1.24-.991C53.543 23.405 60.05 18.65 63.06 16.267zM28.277 30.084l-.026-.017-.027-.014c-.948-.474-2.162-1.32-3.776-2.685l-.018-.014-.018-.014-1.246-.872C12.913 18.966 5.926 13.85 2.311 10.983l-.01-.008-.01-.007-.875-.625-.007-.005-.007-.004C.826 9.95.5 9.254.5 8.375V6c0-1.501.453-2.746 1.604-3.896C3.138 1.069 4.387.5 6 .5h52c1.47 0 2.725.557 3.896 1.604C62.943 3.275 63.5 4.53 63.5 6v2.375c0 .88-.327 1.575-.902 1.959l-.018.012-.017.014-.624.498v.001c-3.616 2.867-10.607 8.111-21.103 15.608l-.002.001-1.246.872-.011.008-.01.009c-1.746 1.37-2.973 2.227-3.815 2.709l-.007.004-.007.004C34.138 31.06 32.86 31.5 32 31.5c-.987 0-2.265-.444-3.723-1.416z"/></svg>