<svg width="16" height="12" fill="none" xmlns="http://www.w3.org/2000/svg"><path d="M15.273 3.87a5.021 5.021 0 0 1-.852.74 163.188 163.188 0 0 0-4.245 2.941c-.716.529-1.602 1.176-2.531 1.176h-.017c-.93 0-1.816-.647-2.531-1.176C3.707 6.537 2.276 5.574.86 4.611A4.766 4.766 0 0 1 0 3.869v6.767C0 11.386.614 12 1.364 12h12.545c.75 0 1.364-.614 1.364-1.364V3.87zm0-2.506C15.273.614 14.65 0 13.909 0H1.364C.452 0 0 .716 0 1.551 0 2.327.86 3.29 1.466 3.7c1.32.92 2.659 1.84 3.98 2.77.554.383 1.492 1.167 2.182 1.167h.017c.69 0 1.628-.784 2.182-1.167 1.32-.93 2.659-1.85 3.988-2.77.75-.52 1.458-1.38 1.458-2.335z" fill="#FAA61A"/></svg>