<svg xmlns="http://www.w3.org/2000/svg" width="56" height="44" fill="none"><path stroke="#FAA61A" d="M53.155 17.32l.005-.003a19.485 19.485 0 002.34-1.903V39c0 2.474-2.026 4.5-4.5 4.5H5A4.515 4.515 0 01.5 39V15.414a18.3 18.3 0 002.376 1.906c.655.447 1.312.893 1.969 1.34 4.543 3.087 9.104 6.187 13.547 9.43 1.308.966 2.805 2.066 4.408 2.921 1.604.856 3.351 1.489 5.169 1.489h.062c1.818 0 3.566-.633 5.17-1.489 1.602-.855 3.098-1.954 4.407-2.92 5.085-3.681 10.329-7.24 15.547-10.77zM5.661 13.152l-.006-.004c-1.06-.716-2.364-1.934-3.4-3.319C1.21 8.431.5 6.946.5 5.687c0-1.447.392-2.75 1.136-3.68C2.37 1.093 3.474.5 5 .5h46c2.445 0 4.5 2.028 4.5 4.5 0 3.26-2.436 6.285-5.128 8.151l-3.292 2.277c-3.786 2.617-7.58 5.24-11.335 7.88-.357.248-.745.53-1.156.83-.803.586-1.697 1.237-2.636 1.825-1.427.893-2.811 1.537-3.922 1.537h-.062c-1.11 0-2.495-.644-3.922-1.537-.94-.588-1.833-1.24-2.636-1.824a60.58 60.58 0 00-1.156-.83 1721.132 1721.132 0 00-9.238-6.436c-1.79-1.242-3.578-2.482-5.356-3.72z"/></svg>