<svg width="61" height="65" fill="none" xmlns="http://www.w3.org/2000/svg"><path fill-rule="evenodd" clip-rule="evenodd" d="M30.12.05a.5.5 0 01.437 0l30.16 14.545a.5.5 0 01.283.45v35.233a.5.5 0 01-.287.452l-30.16 14.222a.5.5 0 01-.428 0L.285 50.728a.5.5 0 01-.285-.45V15.379a.5.5 0 010-.021v-.313a.5.5 0 01.281-.449L30.121.051zM1 16.16v33.802l28.84 13.746V29.906L1 16.161zm29.84 13.746v33.805L60 49.961V16.008l-8.626 4.111v12.058a.5.5 0 01-.289.453l-8.342 3.879a.5.5 0 01-.71-.453V24.572L30.84 29.906zm12.192-5.81v11.176l7.342-3.414V20.596l-7.342 3.5zm7.842-4.846L21.547 5.342l8.794-4.286 29.18 14.072-8.647 4.122zM20.396 5.903L49.71 19.805l-7.176 3.42-28.953-14 6.815-3.322zm-7.96 3.88l-11.12 5.42L30.34 29.038l11.037-5.26-28.94-13.994zM3.9 39.393a.5.5 0 01.669-.232l8.663 4.202a.5.5 0 01-.437.9L4.132 40.06a.5.5 0 01-.231-.668zm-.002 4.854a.5.5 0 01.665-.24l4.813 2.263a.5.5 0 01-.426.905l-4.812-2.263a.5.5 0 01-.24-.665z" fill="#FAA61A"/></svg>