<svg width="23" height="18" fill="none" xmlns="http://www.w3.org/2000/svg"><path d="M17.18 6.735c.21 0 .422.106.598.246.14.176.246.388.246.599v1.69a.849.849 0 0 1-.246.598.824.824 0 0 1-.599.246h-.281v2.253c0 .317-.141.599-.352.81a1.092 1.092 0 0 1-.775.317h-.563a2.18 2.18 0 0 1-.669 1.584c-.458.458-.986.669-1.584.669H8.132l-3.626 2.112a1.193 1.193 0 0 1-.845.106.992.992 0 0 1-.704-.528L.141 12.543C0 12.297-.035 12.015.035 11.7c.07-.282.247-.528.528-.67L3.38 9.376V7.721c0-.388.07-.74.281-1.092.211-.352.458-.633.81-.845l2.288-1.373v4.295c0 .704.246 1.303.74 1.796.492.492 1.09.739 1.795.739a2.44 2.44 0 0 0 1.795-.74 2.44 2.44 0 0 0 .74-1.795V6.735h5.35zm5.21-1.303c.14.282.14.564.07.845a.98.98 0 0 1-.493.67L19.15 8.564V7.58c0-.528-.212-.986-.599-1.373s-.845-.599-1.373-.599h-6.477v3.098c0 .423-.141.74-.423 1.021-.281.282-.598.387-.985.387-.423 0-.74-.105-1.021-.387-.282-.281-.387-.598-.387-1.02V4.27c0-.423.176-.74.528-.95l1.161-.74a2.373 2.373 0 0 1 1.197-.352h3.626L18.024.117c.247-.141.528-.141.845-.07.282.07.528.246.704.492l2.816 4.893z" fill="#FAA61A"/></svg>