<svg width="46" height="46" fill="none" xmlns="http://www.w3.org/2000/svg"><path d="M45.39 35.801l.014.04c.052.12.058.247.058.489 0 .533-.122 1.356-.31 2.197-.19.84-.433 1.643-.657 2.137h0l-.005.01c-.296.69-.851 1.29-1.544 1.827-.692.537-1.483.985-2.22 1.395-1.87 1.014-3.746 1.604-5.83 1.604-2.478 0-4.746-.856-7.1-1.746-.424-.16-.85-.32-1.281-.478h-.002c-1.966-.71-3.86-1.578-5.62-2.667h0c-5.483-3.39-12.119-10.032-15.506-15.52h0c-1.088-1.761-1.955-3.656-2.664-5.624v-.001a144.4 144.4 0 0 0-.479-1.282C1.356 15.825.5 13.555.5 11.075c0-2.086.59-3.964 1.603-5.836.41-.737.857-1.53 1.393-2.221.538-.694 1.136-1.25 1.826-1.546h0l.01-.004C5.825 1.243 6.628.999 7.467.81 8.307.621 9.13.5 9.662.5c.241 0 .368.006.489.058l.039.014c.044.015.146.078.296.248.14.161.287.375.433.617.232.388.435.803.595 1.13l.117.237a.547.547 0 0 0 .01.022c.345.614.688 1.235 1.032 1.858.691 1.252 1.386 2.512 2.108 3.737h0l.005.009c.139.226.306.461.467.688l.006.009c.166.235.33.466.476.699.3.48.478.892.478 1.25 0 .127-.048.3-.184.531a4.353 4.353 0 0 1-.6.757c-.529.553-1.241 1.139-1.985 1.74l-.141.116c-.686.555-1.389 1.123-1.928 1.66a5.419 5.419 0 0 0-.737.88c-.186.29-.333.624-.333.98 0 .572.257 1.172.523 1.675.176.334.39.682.573.98.09.149.174.285.242.402 3.341 6.024 7.52 10.206 13.539 13.55.116.068.252.151.4.242.3.184.646.397.98.573.503.267 1.102.524 1.674.524.357 0 .69-.147.981-.333.295-.19.59-.449.878-.738.537-.54 1.105-1.243 1.66-1.93l.114-.141c.602-.744 1.187-1.457 1.74-1.986.275-.263.527-.466.756-.6.23-.137.404-.185.53-.185.357 0 .77.177 1.248.478.233.147.464.31.699.477l.009.006c.227.161.462.328.688.467h0l.008.005c1.224.722 2.483 1.418 3.734 2.11.623.344 1.243.687 1.857 1.032a34.468 34.468 0 0 0 .258.128c.327.16.742.363 1.13.596.242.145.455.292.615.433.17.15.233.252.248.296z" stroke="#FAA61A" stroke-linejoin="round"/></svg>