<svg width="51" height="50" fill="none" xmlns="http://www.w3.org/2000/svg"><path clip-rule="evenodd" d="M37.084 45.917l-.005.003c-3.807 2.234-7.875 3.286-12.213 3.286-4.479 0-8.67-1.055-12.327-3.408l-.026-.016-.941-.538a.578.578 0 0 0-.433-.058L2.7 47.36l2.285-8.184a.583.583 0 0 0-.054-.444l-.539-.942c-.007-.011-.013-.023-.021-.034C1.748 33.819.568 29.625.568 24.887c0-4.345 1.051-8.411 3.277-12.082h.001l.007-.013c2.1-3.675 5.118-6.7 8.801-8.94C16.335 1.748 20.404.567 24.866.567c3.144 0 6.293.656 9.183 1.837 2.9 1.32 5.526 3.032 7.889 5.396 2.373 2.375 4.214 5.008 5.528 7.9 1.314 3.027 1.967 6.043 1.967 9.187 0 4.467-1.18 8.537-3.413 12.216-2.238 3.69-5.26 6.713-8.936 8.814v0zm-20.245-33.8H15.4c-.907 0-1.63.455-2.166.992l-.12.12a.1.1 0 0 0-.015.015c-1.524 1.653-2.297 3.579-2.297 5.756 0 2.304.896 4.692 2.743 7.157.015.02.031.039.048.056l.209.208c3.383 4.828 7.16 8.258 11.344 9.988 1.954.975 3.668 1.468 4.903 1.715 1.034.257 2.173.254 3.408.013.87-.018 1.801-.453 2.777-1.184.48-.362.927-.711 1.286-1.07.359-.36.659-.757.815-1.223.028-.087.058-.173.088-.26.205-.6.418-1.225.418-1.946v-1.2a.521.521 0 0 0-.15-.367 2.833 2.833 0 0 0-.434-.326 7.503 7.503 0 0 0-.633-.357l-.333-.223a.484.484 0 0 0-.056-.032c-2.4-1.2-3.978-1.93-4.6-2.18a.51.51 0 0 0-.193-.036 1.581 1.581 0 0 1-.39-.057c-.111-.025-.279-.063-.45-.063-.29 0-.525.14-.682.274-.145.125-.266.28-.353.439-.19.236-.416.51-.682.832l-.182.22c-.36.435-.782.948-1.266 1.552l-.009.013c-.107.143-.187.165-.248.169-.09.006-.253-.027-.511-.182a.875.875 0 0 0-.045-.024c-2.276-1.079-3.897-2.014-4.919-2.923l-.029-.023c-1.494-1.152-2.766-2.65-3.814-4.746a.516.516 0 0 0-.096-.134 3.864 3.864 0 0 1-.104-.107.567.567 0 0 0 .015-.101.482.482 0 0 1 .057-.085c.08-.105.204-.229.392-.417.648-.65 1.155-1.416 1.644-2.272a.21.21 0 0 0 .013-.026c.115-.23.147-.51.129-.778a2.38 2.38 0 0 0-.24-.868l-2.034-4.909a.32.32 0 0 0-.015-.033l-.012-.024a5.542 5.542 0 0 0-.32-.588 1.282 1.282 0 0 0-.5-.46l-.034-.018c-.213-.107-.551-.277-.917-.277v0z" stroke="#FAA61A" stroke-width="1.12" stroke-linejoin="round"/></svg>